<?xml version="1.0" encoding="UTF-8"?>
<svg version="1.1" xmlns="http://www.w3.org/2000/svg" width="225" height="224">
<path d="M0 0 C74.25 0 148.5 0 225 0 C225 73.92 225 147.84 225 224 C150.75 224 76.5 224 0 224 C0 150.08 0 76.16 0 0 Z " fill="#000000" transform="translate(0,0)"/>
<path d="M0 0 C0 4.01351289 -1.47809117 5.09901368 -4 8.1875 C-7.73121203 12.94593132 -10.73253788 17.84324762 -13.4375 23.25 C-13.76685547 23.89864014 -14.09621094 24.54728027 -14.43554688 25.21557617 C-17.87987434 32.30287317 -19.37267251 39.02951643 -19.3125 46.9375 C-19.31121094 47.66477295 -19.30992187 48.3920459 -19.30859375 49.14135742 C-19.21670253 54.48770373 -18.52055769 59.57067906 -17.5 64.8125 C-13.97769254 82.92253508 -17.06222567 99.43622853 -27 115 C-36.29604359 128.17745811 -49.43528305 136.27511047 -65 140 C-65.63437988 140.17289551 -66.26875977 140.34579102 -66.92236328 140.52392578 C-81.58505827 143.88376776 -97.29648731 140.18845209 -110 132.6875 C-111.34499449 131.80927169 -112.6837462 130.92074485 -114 130 C-108.73121008 125.78751338 -101.46206293 120.89443069 -94.5234375 121.05859375 C-92.95753986 121.44872289 -91.4001536 121.87414064 -89.8515625 122.328125 C-77.25658064 125.29570977 -64.20748919 123.00253166 -53.25 116.3125 C-43.07259017 108.93756534 -36.57443127 98.7591863 -34.28125 86.3671875 C-33.17597741 77.0644765 -34.33562016 68.94470373 -37 60 C-42.82739204 59.521632 -45.30198172 60.38626031 -49.75 64.125 C-50.88203892 65.04942268 -52.01629284 65.97113724 -53.15234375 66.890625 C-53.7644873 67.39142578 -54.37663086 67.89222656 -55.00732422 68.40820312 C-58.68760796 71.34810143 -62.50827401 74.09868452 -66.3125 76.875 C-74.92056584 83.18995131 -83.47196914 89.57751055 -92 96 C-92.66 95.67 -93.32 95.34 -94 95 C-88.23930343 88.49335859 -82.33452155 82.19195413 -76.17553711 76.06201172 C-74.9299855 74.81624107 -74.9299855 74.81624107 -73.65927124 73.54530334 C-70.95099582 70.83771706 -68.23921032 68.13367653 -65.52734375 65.4296875 C-63.63426634 63.53847782 -61.74138799 61.64707098 -59.84877014 59.75540161 C-55.39929371 55.30901381 -50.94727807 50.86517775 -46.49430805 46.42228901 C-41.41843283 41.35765227 -36.34545028 36.29012218 -31.2726897 31.22236609 C-20.85163969 20.81172448 -10.42702333 10.40465897 0 0 Z " fill="#FAFAFA" transform="translate(193,34)"/>
<path d="M0 0 C0 0.99 0 1.98 0 3 C-2.34477274 4.21010794 -4.69783837 5.39242709 -7.0625 6.5625 C-7.71927734 6.90474609 -8.37605469 7.24699219 -9.05273438 7.59960938 C-13.77935176 9.90470849 -16.72763763 10.2315007 -22 9 C-35.14076835 6.76854877 -47.55936848 7.71636813 -59 15 C-69.3452776 22.74365453 -76.04989446 32.60403694 -78.6875 45.3125 C-78.790625 46.529375 -78.89375 47.74625 -79 49 C-79.07605469 49.80050781 -79.15210938 50.60101563 -79.23046875 51.42578125 C-79.79273511 61.92648536 -76.07953859 71.46419943 -69.13671875 79.31640625 C-68 81 -68 81 -68 85 C-69.25 86.62817383 -69.25 86.62817383 -71 88.20703125 C-71.63583008 88.79000977 -72.27166016 89.37298828 -72.92675781 89.97363281 C-73.61092773 90.58045898 -74.29509766 91.18728516 -75 91.8125 C-76.03785645 92.75561035 -76.03785645 92.75561035 -77.09667969 93.71777344 C-79.05389513 95.49078037 -81.02333318 97.24873317 -83 99 C-83.78890625 99.69996094 -84.5778125 100.39992188 -85.390625 101.12109375 C-86.60487907 102.18484154 -87.82346088 103.24367502 -89.046875 104.296875 C-92.52627451 107.33091137 -95.91488298 110.46586828 -99.32421875 113.578125 C-101.63010382 115.66520346 -103.95952978 117.71645786 -106.3125 119.75 C-109.70106869 122.69141736 -112.86686774 125.78853944 -116 129 C-116.66 128.67 -117.32 128.34 -118 128 C-116.87464844 126.80117188 -116.87464844 126.80117188 -115.7265625 125.578125 C-97.21018848 107.44695982 -97.21018848 107.44695982 -89.63671875 83.80859375 C-90.25445322 79.03277564 -92.06663599 74.70093335 -93.80859375 70.234375 C-98.64611241 57.1017014 -97.02158077 40.60304741 -91.7109375 27.921875 C-83.10254797 9.60027589 -69.46043892 -0.74020272 -51.125 -8.1640625 C-33.84327782 -13.80169748 -15.00681627 -9.35976067 0 0 Z " fill="#F9F9F9" transform="translate(149,61)"/>
<path d="M0 0 C0.33 0 0.66 0 1 0 C1 14.52 1 29.04 1 44 C-14.18 44 -29.36 44 -45 44 C-45 43.67 -45 43.34 -45 43 C-43.97261719 42.79246094 -42.94523438 42.58492187 -41.88671875 42.37109375 C-26.9230123 39.13354449 -15.3240822 32.43924994 -6.75 19.375 C-3.28484658 13.31571533 -1.64900892 6.73183643 0 0 Z " fill="#F9F9F9" transform="translate(224,180)"/>
<path d="M0 0 C15.51 0 31.02 0 47 0 C47 14.52 47 29.04 47 44 C45.44091899 40.88183798 44.61689609 38.71446929 43.8125 35.4375 C40.06624663 22.71896982 30.97779267 12.69184363 19.58203125 6.25 C13.34478715 3.23045671 6.85671541 1.74529515 0 1 C0 0.67 0 0.34 0 0 Z " fill="#F9F9F9" transform="translate(178,0)"/>
<path d="M0 0 C15.18 0 30.36 0 46 0 C46 0.33 46 0.66 46 1 C44.76636719 1.23783203 44.76636719 1.23783203 43.5078125 1.48046875 C27.58798472 4.80782305 16.43342897 11.89558005 7.3984375 25.66015625 C3.89542564 31.5213409 2.27792701 37.36981401 1 44 C0.67 44 0.34 44 0 44 C0 29.48 0 14.96 0 0 Z " fill="#F9F9F9" transform="translate(0,0)"/>
<path d="M0 0 C0.33 0 0.66 0 1 0 C1.14695313 0.87140625 1.29390625 1.7428125 1.4453125 2.640625 C4.26394901 17.60855679 9.90330351 28.7858951 22.5859375 37.84765625 C29.30380087 42.05407224 36.07108263 45.00888533 44 46 C44 46.33 44 46.66 44 47 C29.48 47 14.96 47 0 47 C0 31.49 0 15.98 0 0 Z " fill="#F9F9F9" transform="translate(0,177)"/>
<path d="M0 0 C0 3.7226489 -0.98537259 4.67462429 -3.25 7.5625 C-3.85328125 8.34753906 -4.4565625 9.13257813 -5.078125 9.94140625 C-7 12 -7 12 -8.90735245 12.93177032 C-11.17560935 14.08964296 -12.60612992 15.35456606 -14.40423584 17.15026855 C-15.05762436 17.79801743 -15.71101288 18.4457663 -16.38420105 19.11314392 C-17.08982681 19.82281815 -17.79545258 20.53249237 -18.52246094 21.26367188 C-19.6498745 22.38582848 -19.6498745 22.38582848 -20.80006409 23.53065491 C-23.28322373 26.00501099 -25.7589955 28.48661232 -28.234375 30.96875 C-29.95472422 32.68775246 -31.67537027 34.4064579 -33.39630127 36.12487793 C-37.00070052 39.72632802 -40.60145537 43.33137293 -44.19970703 46.93896484 C-48.82245772 51.57312696 -53.45415051 56.19823122 -58.08858871 60.8207016 C-61.6419575 64.36686087 -65.1905705 67.91774824 -68.73773956 71.47010803 C-70.44438919 73.17809579 -72.15253663 74.88458822 -73.86217499 76.58958435 C-76.24468285 78.96704011 -78.62073033 81.35076564 -80.99511719 83.73632812 C-82.06570122 84.80083946 -82.06570122 84.80083946 -83.15791321 85.88685608 C-83.80002243 86.53460495 -84.44213165 87.18235382 -85.10369873 87.84973145 C-85.66632793 88.4131147 -86.22895714 88.97649796 -86.80863571 89.55695343 C-88.21221782 90.94516807 -88.21221782 90.94516807 -88 93 C-90 94.625 -90 94.625 -92 96 C-92.66 95.67 -93.32 95.34 -94 95 C-88.23930343 88.49335859 -82.33452155 82.19195413 -76.17553711 76.06201172 C-74.9299855 74.81624107 -74.9299855 74.81624107 -73.65927124 73.54530334 C-70.95099582 70.83771706 -68.23921032 68.13367653 -65.52734375 65.4296875 C-63.63426634 63.53847782 -61.74138799 61.64707098 -59.84877014 59.75540161 C-55.39929371 55.30901381 -50.94727807 50.86517775 -46.49430805 46.42228901 C-41.41843283 41.35765227 -36.34545028 36.29012218 -31.2726897 31.22236609 C-20.85163969 20.81172448 -10.42702333 10.40465897 0 0 Z " fill="#D4D4D4" transform="translate(193,34)"/>
</svg>
