<svg version="1.1" id="Layer_1" xmlns="http://www.w3.org/2000/svg" xmlns:xlink="http://www.w3.org/1999/xlink" x="0px" y="0px"
	 width="100%" viewBox="0 0 225 225" enable-background="new 0 0 225 225" xml:space="preserve">
<path fill="#FEFFFF" opacity="1.000000" stroke="none" 
	d="
M116.000000,1.000000 
	C152.648666,1.000000 189.297348,1.000000 225.973007,1.000000 
	C225.973007,75.945190 225.973007,150.890381 225.973007,225.917786 
	C151.091690,225.917786 76.183266,225.917786 1.137420,225.917786 
	C1.137420,151.000153 1.137420,76.000122 1.137420,1.000000 
	C36.430553,1.000000 71.746620,1.000000 107.327011,1.295774 
	C105.126335,2.564186 102.489479,3.240442 100.222664,4.554851 
	C74.749138,19.325575 49.262997,34.078053 23.984535,49.177433 
	C20.651983,51.168045 18.457993,55.064758 15.477979,58.297287 
	C14.528255,61.353413 13.837238,64.190918 13.062655,67.488625 
	C13.032391,99.621078 13.085692,131.293335 13.070030,163.345963 
	C13.771305,169.420609 16.823166,173.381790 21.838825,176.172668 
	C48.639015,191.085129 75.340790,206.175369 102.212128,220.957779 
	C105.389229,222.705551 109.394981,222.946991 113.250916,223.964874 
	C113.485229,224.043060 113.965225,223.926208 114.375496,224.000488 
	C118.563515,222.952713 122.543648,222.261154 126.069611,220.603516 
	C130.858688,218.352051 135.302032,215.364441 139.890778,212.687622 
	C159.972458,200.973022 179.994064,189.153763 200.159866,177.585831 
	C209.740814,172.089783 214.234497,164.292313 214.122253,153.128647 
	C213.841339,125.191765 214.208755,97.247826 213.846497,69.312813 
	C213.788025,64.804863 211.318481,60.328171 209.856171,55.526649 
	C206.651886,52.518555 203.862228,49.311413 200.398438,47.221684 
	C191.175461,41.657413 181.719177,36.469524 172.252258,31.322128 
	C153.538376,21.146935 134.754776,11.099977 116.000000,1.000000 
z"/>
<path fill="#3DDC84" opacity="1.000000" stroke="none" 
	d="
M15.736687,58.078674 
	C18.457993,55.064758 20.651983,51.168045 23.984535,49.177433 
	C49.262997,34.078053 74.749138,19.325575 100.222664,4.554851 
	C102.489479,3.240442 105.126335,2.564186 107.795670,1.295774 
	C110.370560,1.000000 112.741112,1.000000 115.555832,1.000000 
	C134.754776,11.099977 153.538376,21.146935 172.252258,31.322128 
	C181.719177,36.469524 191.175461,41.657413 200.398438,47.221684 
	C203.862228,49.311413 206.651886,52.518555 209.518311,55.627060 
	C196.867493,63.420135 184.447281,70.802422 171.784424,78.158554 
	C171.541779,78.132401 171.055252,78.175018 171.016327,77.814682 
	C168.788116,75.547379 166.837906,73.225891 164.369766,71.802505 
	C151.017624,64.102356 137.415680,56.830360 124.147346,48.991810 
	C116.358643,44.390472 109.104271,43.432308 101.552452,49.159805 
	C99.457344,50.748783 96.941559,51.771004 94.687675,53.164665 
	C80.768410,61.771454 66.868851,70.410088 52.622646,78.953293 
	C40.100594,71.938530 27.918640,65.008606 15.736687,58.078674 
z"/>
<path fill="#4285F4" opacity="1.000000" stroke="none" 
	d="
M172.027054,78.184708 
	C184.447281,70.802422 196.867493,63.420135 209.625580,55.937443 
	C211.318481,60.328171 213.788025,64.804863 213.846497,69.312813 
	C214.208755,97.247826 213.841339,125.191765 214.122253,153.128647 
	C214.234497,164.292313 209.740814,172.089783 200.159866,177.585831 
	C179.994064,189.153763 159.972458,200.973022 139.890778,212.687622 
	C135.302032,215.364441 130.858688,218.352051 126.069611,220.603516 
	C122.543648,222.261154 118.563515,222.952713 114.384644,223.774323 
	C113.983513,223.473877 113.879463,223.033203 113.948471,222.649994 
	C114.078812,221.491669 114.140137,220.716537 114.455299,219.621887 
	C114.806091,210.154694 114.983727,201.006836 114.959824,191.859512 
	C114.950417,188.261002 114.490662,184.663681 114.206337,180.797333 
	C114.209648,180.351822 114.242607,180.174789 114.650528,180.003769 
	C116.743645,179.487778 118.636269,179.269180 120.153114,178.397034 
	C136.094238,169.231110 152.012360,160.023544 167.848419,150.677689 
	C172.130798,148.150406 174.101166,144.177216 174.069702,139.043289 
	C173.961838,121.439041 174.112610,103.832893 173.939148,86.229691 
	C173.912674,83.542015 172.694214,80.866074 172.027054,78.184708 
z"/>
<path fill="#083042" opacity="1.000000" stroke="none" 
	d="
M114.275574,179.997757 
	C114.242607,180.174789 114.209648,180.351822 114.131607,181.255890 
	C114.124832,194.635742 114.163147,207.288589 114.201462,219.941422 
	C114.140137,220.716537 114.078812,221.491669 113.757629,222.738312 
	C113.264694,223.383789 113.104309,223.609421 113.016609,223.886703 
	C109.394981,222.946991 105.389229,222.705551 102.212128,220.957779 
	C75.340790,206.175369 48.639015,191.085129 21.838825,176.172668 
	C16.823166,173.381790 13.771305,169.420609 13.339961,163.034363 
	C13.784788,161.693375 13.983035,161.044403 13.983390,160.395325 
	C13.999710,130.520645 14.009055,100.645943 13.963692,70.771332 
	C13.961797,69.523285 13.430750,68.276047 13.146221,67.028427 
	C13.837238,64.190918 14.528255,61.353413 15.477978,58.297287 
	C27.918640,65.008606 40.100594,71.938530 52.673828,79.139236 
	C53.065109,79.410011 53.093395,79.794876 53.070740,80.279160 
	C53.022644,100.535370 53.167820,120.309929 52.862366,140.077515 
	C52.776573,145.629791 54.762848,149.140747 59.458996,151.755539 
	C75.087074,160.457275 90.597969,169.370132 106.261169,178.007294 
	C108.483589,179.232803 111.300964,179.379364 113.951111,180.018204 
	C114.059242,180.011108 114.275574,179.997757 114.275574,179.997757 
z"/>
<path fill="#001A32" opacity="1.000000" stroke="none" 
	d="
M13.062656,67.488625 
	C13.430750,68.276047 13.961797,69.523285 13.963692,70.771332 
	C14.009055,100.645943 13.999710,130.520645 13.983390,160.395325 
	C13.983035,161.044403 13.784788,161.693375 13.408924,162.653992 
	C13.085692,131.293335 13.032391,99.621078 13.062656,67.488625 
z"/>
<path fill="#00262B" opacity="1.000000" stroke="none" 
	d="
M113.250916,223.964874 
	C113.104309,223.609421 113.264694,223.383789 113.688614,223.121521 
	C113.879463,223.033203 113.983513,223.473877 113.974365,223.700043 
	C113.965225,223.926208 113.485229,224.043060 113.250916,223.964874 
z"/>
<path fill="#37BF6E" opacity="1.000000" stroke="none" 
	d="
M53.093395,79.794876 
	C53.093395,79.794876 53.065109,79.410011 53.013927,79.224075 
	C66.868851,70.410088 80.768410,61.771454 94.687675,53.164665 
	C96.941559,51.771004 99.457344,50.748783 101.552452,49.159805 
	C109.104271,43.432308 116.358643,44.390472 124.147346,48.991810 
	C137.415680,56.830360 151.017624,64.102356 164.369766,71.802505 
	C166.837906,73.225891 168.788116,75.547379 170.837387,78.091705 
	C164.816513,82.260788 158.935623,85.792503 152.735321,89.142830 
	C150.691528,87.676437 149.078964,86.194885 147.223953,85.139519 
	C137.840332,79.800919 128.332047,74.679222 118.996941,69.258499 
	C114.780807,66.810272 110.996132,66.861916 106.853722,69.360710 
	C97.892883,74.766098 88.751518,79.873009 79.811584,85.311745 
	C77.331123,86.820763 75.298477,89.065880 72.766174,90.801414 
	C66.012444,87.017990 59.552921,83.406433 53.093395,79.794876 
z"/>
<path fill="#3971B2" opacity="1.000000" stroke="none" 
	d="
M153.054749,89.324219 
	C158.935623,85.792503 164.816513,82.260788 170.876312,78.452042 
	C171.055252,78.175018 171.541779,78.132401 171.784424,78.158554 
	C172.694214,80.866074 173.912674,83.542015 173.939148,86.229691 
	C174.112610,103.832893 173.961838,121.439041 174.069702,139.043289 
	C174.101166,144.177216 172.130798,148.150406 167.848419,150.677689 
	C152.012360,160.023544 136.094238,169.231110 120.153114,178.397034 
	C118.636269,179.269180 116.743645,179.487778 114.650528,180.003769 
	C114.275574,179.997757 114.059242,180.011108 114.014343,179.551483 
	C113.962715,172.109497 113.955986,165.127121 114.319138,158.075134 
	C126.769852,151.160187 138.978073,144.522522 150.806351,137.265594 
	C152.782318,136.053284 153.922592,132.188416 154.046371,129.485001 
	C154.448486,120.702850 154.324295,111.888374 154.149475,103.091385 
	C154.058182,98.496887 153.436752,93.912933 153.054749,89.324219 
z"/>
<path fill="#4C8BF4" opacity="1.000000" stroke="none" 
	d="
M114.455299,219.621887 
	C114.163147,207.288589 114.124832,194.635742 114.161255,181.524353 
	C114.490662,184.663681 114.950417,188.261002 114.959824,191.859512 
	C114.983727,201.006836 114.806091,210.154694 114.455299,219.621887 
z"/>
<path fill="#041619" opacity="1.000000" stroke="none" 
	d="
M113.949249,158.144745 
	C113.955986,165.127121 113.962715,172.109497 113.906204,179.558594 
	C111.300964,179.379364 108.483589,179.232803 106.261169,178.007294 
	C90.597969,169.370132 75.087074,160.457275 59.458996,151.755539 
	C54.762848,149.140747 52.776573,145.629791 52.862366,140.077515 
	C53.167820,120.309929 53.022644,100.535370 53.070740,80.279160 
	C59.552921,83.406433 66.012444,87.017990 72.746689,91.139023 
	C72.872688,92.073380 72.723961,92.498253 72.235802,93.090118 
	C71.668732,93.689331 71.244019,94.120712 71.242142,94.553925 
	C71.188950,106.812134 71.144669,119.070763 71.229439,131.328415 
	C71.235741,132.239304 72.218468,133.143417 72.878288,134.379471 
	C76.735092,137.744232 80.216064,141.167404 84.249123,143.717407 
	C89.205193,146.851013 94.563110,149.377747 99.857735,151.938538 
	C104.475319,154.171829 109.246132,156.088303 113.949249,158.144745 
z"/>
<path fill="#D5F0FE" opacity="1.000000" stroke="none" 
	d="
M72.575233,92.923134 
	C72.723961,92.498253 72.872688,92.073380 73.040894,91.310890 
	C75.298477,89.065880 77.331123,86.820763 79.811584,85.311745 
	C88.751518,79.873009 97.892883,74.766098 106.853722,69.360710 
	C110.996132,66.861916 114.780807,66.810272 118.996941,69.258499 
	C128.332047,74.679222 137.840332,79.800919 147.223953,85.139519 
	C149.078964,86.194885 150.691528,87.676437 152.735321,89.142830 
	C153.436752,93.912933 154.058182,98.496887 154.149475,103.091385 
	C154.324295,111.888374 154.448486,120.702850 154.046371,129.485001 
	C153.922592,132.188416 152.782318,136.053284 150.806351,137.265594 
	C138.978073,144.522522 126.769852,151.160187 114.319138,158.075134 
	C109.246132,156.088303 104.475319,154.171829 99.857735,151.938538 
	C94.563110,149.377747 89.205193,146.851013 84.249123,143.717407 
	C80.216064,141.167404 76.735092,137.744232 72.897385,133.908051 
	C72.715385,119.712944 72.645309,106.318039 72.575233,92.923134 
z"/>
<path fill="#2E373E" opacity="1.000000" stroke="none" 
	d="
M72.235802,93.090118 
	C72.645309,106.318039 72.715385,119.712944 72.766373,133.579269 
	C72.218468,133.143417 71.235741,132.239304 71.229439,131.328415 
	C71.144669,119.070763 71.188950,106.812134 71.242142,94.553925 
	C71.244019,94.120712 71.668732,93.689331 72.235802,93.090118 
z"/>
</svg>