<?xml version="1.0" encoding="UTF-8"?>
<svg version="1.1" xmlns="http://www.w3.org/2000/svg" width="360" height="360">
<path d="M0 0 C0.29712891 0.59603027 0.59425781 1.19206055 0.90039062 1.80615234 C5.49136731 10.96568088 9.94865628 18.50378433 17.4921875 25.5859375 C35.5511418 42.96979071 47.29711144 66.46244297 55 90 C55.27392578 90.8353125 55.54785156 91.670625 55.83007812 92.53125 C62.64690925 114.39978092 63.32223114 142.18379894 56 164 C55.75330566 164.76763672 55.50661133 165.53527344 55.25244141 166.32617188 C47.32771048 190.63062597 34.34468177 208.38371001 16 226 C11.31427093 230.55781406 8.82182801 233.18079761 8.4375 239.8125 C8.36402344 240.95847656 8.29054688 242.10445312 8.21484375 243.28515625 C8.14394531 244.51105469 8.07304687 245.73695313 8 247 C7.83836134 249.58365281 7.67184709 252.1670061 7.5 254.75 C7.4278125 255.92046875 7.355625 257.0909375 7.28125 258.296875 C7 261 7 261 6 262 C3.5 262.125 3.5 262.125 1 262 C-0.58781233 260.41218767 -0.38927918 258.60312145 -0.6484375 256.40625 C-0.76703125 255.4575 -0.885625 254.50875 -1.0078125 253.53125 C-1.24876097 251.54214347 -1.48586979 249.55256728 -1.71875 247.5625 C-2.90905422 238.14136871 -3.98284922 230.89699302 -11.5625 224.5625 C-12.6447529 223.62675941 -13.72545743 222.68922534 -14.8046875 221.75 C-15.34319336 221.28980469 -15.88169922 220.82960937 -16.43652344 220.35546875 C-39.45471305 200.39966164 -53.57067681 171.87293668 -58 142 C-60.04413613 101.11040632 -50.04549627 60.31091331 -22.68994141 28.82910156 C-18.61960237 24.42358581 -14.25791433 20.2623427 -9.83740234 16.21044922 C-4.70939123 11.34292355 -2.10299113 6.74554149 0 0 Z " fill="#4BA63C" transform="translate(179,8)"/>
<path d="M0 0 C0.2578125 0.52335938 0.515625 1.04671875 0.78125 1.5859375 C5.44045264 10.81474273 9.87658733 18.43612327 17.4921875 25.5859375 C35.5511418 42.96979071 47.29711144 66.46244297 55 90 C55.27392578 90.8353125 55.54785156 91.670625 55.83007812 92.53125 C62.64690925 114.39978092 63.32223114 142.18379894 56 164 C55.75330566 164.76763672 55.50661133 165.53527344 55.25244141 166.32617188 C47.68755531 189.52701346 33.32499997 216.826404 11 229 C2.93345644 221.1457339 2.11496682 213.36891712 1.83984375 202.47265625 C1.76578237 194.53909166 1.99084763 186.62271275 2.36271667 178.69851685 C2.96479261 165.83589422 3.19648281 153.00049028 3.1875 140.125 C3.1882251 139.04064667 3.1889502 137.95629333 3.18969727 136.83908081 C3.18670397 94.5561873 1.95793569 52.26948993 1 10 C-1.12364481 9.77390663 -1.12364481 9.77390663 -2.625 11.5 C-3.305625 12.2425 -3.305625 12.2425 -4 13 C-4.66 12.67 -5.32 12.34 -6 12 C-5.38125 11.13375 -4.7625 10.2675 -4.125 9.375 C-2.15345216 6.24371814 -1.01033009 3.53615531 0 0 Z " fill="#429A34" transform="translate(179,8)"/>
<path d="M0 0 C1.56163137 2.7860233 2.2562706 4.83116988 2.31643677 8.01979065 C2.3360144 8.81085709 2.35559204 9.60192352 2.37576294 10.41696167 C2.39302933 11.70632126 2.39302933 11.70632126 2.41064453 13.02172852 C2.43044373 13.93479263 2.45024292 14.84785675 2.47064209 15.78858948 C2.53395486 18.81858944 2.58350815 21.84864845 2.6328125 24.87890625 C2.67403334 27.00570642 2.71602818 29.13249171 2.75875854 31.25926208 C2.84676531 35.73566175 2.92853891 40.21211547 3.00537109 44.6887207 C3.10249713 50.34581038 3.20988901 56.00263865 3.32126236 61.65946388 C3.56844897 74.22288663 3.7771388 86.78653322 3.95960999 99.35105133 C3.9972127 101.8171972 4.03980331 104.28318668 4.08483887 106.74920654 C4.15494188 110.61261463 4.20155307 114.47600333 4.2421875 118.33984375 C4.27495285 119.91857018 4.27495285 119.91857018 4.30838013 121.52919006 C4.35573934 130.32044406 4.35573934 130.32044406 1 134 C0.01 134 -0.98 134 -2 134 C-2.91058531 130.92677456 -3.08886184 128.19902639 -3 125 C-6.69900008 125.88776002 -10.34550461 126.94581864 -14 128 C-14.66 127.34 -15.32 126.68 -16 126 C-15.01 125.505 -15.01 125.505 -14 125 C-12.20968895 122.7667506 -12.20968895 122.7667506 -11 120 C-11.165 119.195625 -11.33 118.39125 -11.5 117.5625 C-12.20360388 113.9565301 -10.79733638 112.09141858 -9 109 C-8.34 109.66 -7.68 110.32 -7 111 C-7.66 109.35 -8.32 107.7 -9 106 C-9.66 106 -10.32 106 -11 106 C-11.33 105.01 -11.66 104.02 -12 103 C-10.515 102.505 -10.515 102.505 -9 102 C-9.66 100.68 -10.32 99.36 -11 98 C-9.68 96.35 -8.36 94.7 -7 93 C-9.31 93.99 -11.62 94.98 -14 96 C-14.103125 95.484375 -14.20625 94.96875 -14.3125 94.4375 C-14.98636042 91.77945049 -14.98636042 91.77945049 -16.625 88.625 C-18.09429038 84.75141626 -18.05541334 82.93381337 -17 79 C-18.485 78.01 -18.485 78.01 -20 77 C-19.67 76.34 -19.34 75.68 -19 75 C-18.01 75 -17.02 75 -16 75 C-16.66 74.34 -17.32 73.68 -18 73 C-17.67 72.34 -17.34 71.68 -17 71 C-17.39938767 68.90178785 -17.39938767 68.90178785 -18 67 C-18.99 67.495 -18.99 67.495 -20 68 C-24.70491803 65.59016393 -24.70491803 65.59016393 -26 63 C-25.34 62.34 -24.68 61.68 -24 61 C-24.66 59.68 -25.32 58.36 -26 57 C-24.68 55.02 -23.36 53.04 -22 51 C-22.495 51.495 -22.495 51.495 -23 52 C-23.66 50.68 -24.32 49.36 -25 48 C-25.66 48.66 -26.32 49.32 -27 50 C-27.66 50 -28.32 50 -29 50 C-29.495 48.515 -29.495 48.515 -30 47 C-31.32 47 -32.64 47 -34 47 C-34.33 47.66 -34.66 48.32 -35 49 C-35.66 48.67 -36.32 48.34 -37 48 C-36.67 47.34 -36.34 46.68 -36 46 C-36.66 45.67 -37.32 45.34 -38 45 C-30.99176261 33.42016405 -23.21512676 22.96760206 -13.6875 13.375 C-13.100896 12.78291748 -12.51429199 12.19083496 -11.90991211 11.58081055 C-8.79189158 8.51440845 -5.81695134 6.18406782 -2 4 C-0.67206394 1.93299345 -0.67206394 1.93299345 0 0 Z M-2 120 C-1.67 120.99 -1.34 121.98 -1 123 C-1 122.01 -1 121.02 -1 120 C-1.33 120 -1.66 120 -2 120 Z M-18 127 C-16 128 -16 128 -16 128 Z " fill="#56AD47" transform="translate(179,14)"/>
<path d="M0 0 C3.98340305 -0.09973852 7.96631108 -0.17187198 11.95068359 -0.21972656 C13.96347627 -0.24946045 15.97592134 -0.30031729 17.98828125 -0.3515625 C25.48254135 -0.4268817 30.69723382 -0.2095681 37 4 C39.56591953 6.96684446 39.96271866 8.58244902 40.3125 12.5 C40.01594584 15.82140659 39.62145467 18.09844954 38 21 C35 22 35 22 33 22 C33 22.66 33 23.32 33 24 C33.721875 24.0825 34.44375 24.165 35.1875 24.25 C38.63494802 25.16931947 40.45204052 26.52281717 43 29 C44.52478931 33.35523653 43.99114157 37.56675437 43 42 C41.13291161 45.66749505 40.05851323 47.50766826 36.3125 49.25 C35.549375 49.4975 34.78625 49.745 34 50 C33.505 50.99 33.505 50.99 33 52 C29.06856656 53.13938308 25.23864828 53.11558876 21.16796875 53.09765625 C19.87568359 53.09443359 18.58339844 53.09121094 17.25195312 53.08789062 C15.89713474 53.07953665 14.54231703 53.07107172 13.1875 53.0625 C11.81315265 53.05748 10.43880355 53.05291797 9.06445312 53.04882812 C5.70959076 53.03705668 2.35481779 53.02061283 -1 53 C-0.67 51.68 -0.34 50.36 0 49 C2.97 48.505 2.97 48.505 6 48 C6.10333084 36.11218381 6.15180771 24.2725845 5.26782227 12.41064453 C4.90121171 7.19757659 4.90121171 7.19757659 6 5 C3.69 4.67 1.38 4.34 -1 4 C-0.67 2.68 -0.34 1.36 0 0 Z M16 5 C14.46733418 8.06533164 14.89723529 11.26754272 14.9375 14.625 C14.94201172 15.33140625 14.94652344 16.0378125 14.95117188 16.765625 C14.96296125 18.51045275 14.98089676 20.255237 15 22 C16.93681161 22.08107583 18.8745934 22.13922475 20.8125 22.1875 C21.89144531 22.22230469 22.97039062 22.25710938 24.08203125 22.29296875 C26.98108422 22.25023117 26.98108422 22.25023117 28.83203125 20.6640625 C30.63167078 18.10002758 30.87783254 16.11527019 31 13 C29.8551403 9.86669978 28.91623001 7.74655779 26.3125 5.625 C22.83175913 4.68425922 19.59984981 4.88000501 16 5 Z M15 27 C14.94595551 29.75026417 14.90630694 32.49946203 14.875 35.25 C14.85824219 36.02730469 14.84148437 36.80460937 14.82421875 37.60546875 C14.74031699 43.08306936 14.74031699 43.08306936 17 48 C24.38114869 48.60648024 24.38114869 48.60648024 31.125 46.125 C34.04542303 42.81518724 34.34142488 40.46430105 34.28515625 36.03515625 C33.83321304 32.80964378 32.31988026 31.19099803 30 29 C26.6940246 26.91201554 24.12073477 26.78283965 20.25 26.875 C19.26515625 26.89304687 18.2803125 26.91109375 17.265625 26.9296875 C16.51796875 26.95289063 15.7703125 26.97609375 15 27 Z " fill="#876F56" transform="translate(305,278)"/>
<path d="M0 0 C4.35581651 -0.10007178 8.71099593 -0.17202448 13.06762695 -0.21972656 C14.54463378 -0.23964487 16.02156384 -0.26679007 17.49829102 -0.30175781 C27.23696964 -0.52631873 37.28387042 -0.7403137 45.19238281 5.81811523 C51.81152641 12.43457685 53.14811002 20.05545724 53.1875 29.125 C53.14000133 31.0837546 53.08284422 33.04242177 53 35 C52.34 35 51.68 35 51 35 C50.7215625 36.2684375 50.7215625 36.2684375 50.4375 37.5625 C48.19004995 42.93683707 44.44675939 46.88300115 39.125 49.3125 C38.073125 49.6528125 38.073125 49.6528125 37 50 C36.505 50.99 36.505 50.99 36 52 C29.71325109 53.4744453 23.25841215 53.18606107 16.83984375 53.18530273 C14.74198679 53.18750843 12.64464049 53.20575691 10.546875 53.22460938 C9.21354346 53.22754028 7.88020943 53.2295271 6.546875 53.23046875 C4.73461426 53.23663208 4.73461426 53.23663208 2.88574219 53.24291992 C0 53 0 53 -2 51 C-1.34 51 -0.68 51 0 51 C0 50.34 0 49.68 0 49 C1.65 48.34 3.3 47.68 5 47 C5.17008925 43.04180613 5.33543618 39.08342714 5.5 35.125 C5.54769531 34.01640625 5.59539062 32.9078125 5.64453125 31.765625 C6.38884031 18.82248335 6.38884031 18.82248335 5 6 C2.69 5.34 0.38 4.68 -2 4 C-1.34 2.68 -0.68 1.36 0 0 Z M16 5 C14.43197596 8.13604808 14.83704235 11.48672145 14.83203125 14.9296875 C14.82870285 15.71642853 14.82537445 16.50316956 14.82194519 17.31375122 C14.81687845 18.9798321 14.81453679 20.64592314 14.81469727 22.31201172 C14.81251464 24.85791836 14.79436728 27.40338903 14.77539062 29.94921875 C14.77245586 31.56770685 14.77047162 33.18619701 14.76953125 34.8046875 C14.76234573 35.5652243 14.75516022 36.32576111 14.74775696 37.10934448 C14.76547676 42.37125722 14.76547676 42.37125722 17 47 C21.18365063 49.09182531 26.44407619 48.42935408 31 48 C36.34493379 45.42297835 39.65927289 41.74849058 42.25 36.4375 C43.91941011 28.78603701 44.35438457 19.84478698 40 13 C35.77603133 8.32756058 31.31090359 5.20771039 24.88671875 4.8046875 C23.83097656 4.82789063 22.77523438 4.85109375 21.6875 4.875 C20.61886719 4.89304687 19.55023438 4.91109375 18.44921875 4.9296875 C17.23685547 4.96449219 17.23685547 4.96449219 16 5 Z " fill="#8D745B" transform="translate(247,278)"/>
<path d="M0 0 C0.33 1.32 0.66 2.64 1 4 C1.76183594 3.566875 1.76183594 3.566875 2.5390625 3.125 C6.78770584 0.83359685 10.05978076 -0.8782612 15 0 C17.875 2 17.875 2 20 4 C20.721875 3.71125 21.44375 3.4225 22.1875 3.125 C23.115625 2.75375 24.04375 2.3825 25 2 C26.2065625 1.443125 26.2065625 1.443125 27.4375 0.875 C31.55340207 -0.53042997 34.63545815 -0.53947003 38.6875 1.0625 C42.38781637 4.16276507 43.79554844 7.82385688 44.23852539 12.53881836 C44.29430033 15.3443227 44.26227416 18.1325102 44.1875 20.9375 C44.16719727 22.3925293 44.16719727 22.3925293 44.14648438 23.87695312 C44.11138677 26.25189129 44.06222275 28.62564378 44 31 C45.98 31 47.96 31 50 31 C49.67 32.65 49.34 34.3 49 36 C42.41816638 36.8931507 36.57849492 36.95494281 30 36 C30.75 34.0625 30.75 34.0625 32 32 C34.078125 31.37109375 34.078125 31.37109375 36 31 C35.97722534 27.56102661 35.89996096 24.1253887 35.8125 20.6875 C35.80669922 19.71103516 35.80089844 18.73457031 35.79492188 17.72851562 C35.74780548 12.19344652 35.74780548 12.19344652 32.88671875 7.70703125 C29.29776404 6.57527039 29.29776404 6.57527039 23 9 C22.67 16.26 22.34 23.52 22 31 C23.65 31.33 25.3 31.66 27 32 C27 33.32 27 34.64 27 36 C21.06 36 15.12 36 9 36 C9 34.68 9 33.36 9 32 C10.65 31.67 12.3 31.34 14 31 C14.05447822 28.47886908 14.09389852 25.9589415 14.125 23.4375 C14.14175781 22.73302734 14.15851562 22.02855469 14.17578125 21.30273438 C14.22022044 16.48108178 13.52768004 12.57702562 12 8 C6.35496446 6.9032702 6.35496446 6.9032702 1 9 C0.67 16.26 0.34 23.52 0 31 C1.65 31.33 3.3 31.66 5 32 C5 33.32 5 34.64 5 36 C-0.94 36 -6.88 36 -13 36 C-13 34.68 -13 33.36 -13 32 C-11.35 31.67 -9.7 31.34 -8 31 C-8.33 23.41 -8.66 15.82 -9 8 C-11.475 7.01 -11.475 7.01 -14 6 C-13.67 5.01 -13.34 4.02 -13 3 C-10.56640625 2.05078125 -10.56640625 2.05078125 -7.5625 1.3125 C-6.57378906 1.06113281 -5.58507812 0.80976563 -4.56640625 0.55078125 C-2 0 -2 0 0 0 Z " fill="#4A3428" transform="translate(25,295)"/>
<path d="M0 0 C2.36819284 3.7030464 2.34551223 7.37051597 2.4140625 11.62890625 C2.43347397 12.39532944 2.45288544 13.16175262 2.47288513 13.95140076 C2.53369545 16.48831967 2.57981049 19.02525821 2.625 21.5625 C2.66305204 23.33008413 2.70138665 25.0976622 2.73999023 26.86523438 C3.14823314 46.90777714 3.0960315 66.95453312 3 87 C1.515 86.505 1.515 86.505 0 86 C0 85.01 0 84.02 0 83 C-0.2475 81.7625 -0.2475 81.7625 -0.5 80.5 C-1 78 -1 78 -1 75 C-1.66 75 -2.32 75 -3 75 C-3.103125 73.96875 -3.20625 72.9375 -3.3125 71.875 C-3.99202908 68.04492699 -5.24595824 65.42835434 -7 62 C-6.67 61.34 -6.34 60.68 -6 60 C-7.65 59.67 -9.3 59.34 -11 59 C-11.33 57.68 -11.66 56.36 -12 55 C-11.01 54.505 -11.01 54.505 -10 54 C-10 52.68 -10 51.36 -10 50 C-10.66 49.34 -11.32 48.68 -12 48 C-12.36871088 46.34080104 -12.69595322 44.67225729 -13 43 C-13.64389782 40.99255385 -14.30562253 38.99054876 -15 37 C-15.66 38.32 -16.32 39.64 -17 41 C-17.99 40.01 -18.98 39.02 -20 38 C-20.99 38.495 -20.99 38.495 -22 39 C-22.66 38.34 -23.32 37.68 -24 37 C-23.34 35.68 -22.68 34.36 -22 33 C-22.66 32.34 -23.32 31.68 -24 31 C-24 30.01 -24 29.02 -24 28 C-22.68 28.33 -21.36 28.66 -20 29 C-20 29.66 -20 30.32 -20 31 C-19.67 31 -19.34 31 -19 31 C-19 27.7 -19 24.4 -19 21 C-17.35 20.67 -15.7 20.34 -14 20 C-14 20.66 -14 21.32 -14 22 C-12.68 19.36 -11.36 16.72 -10 14 C-9.34 14 -8.68 14 -8 14 C-7.938125 13.278125 -7.87625 12.55625 -7.8125 11.8125 C-6.75168262 8.14043984 -4.73934833 6.60572158 -2 4 C-0.70480005 1.83379456 -0.70480005 1.83379456 0 0 Z M-13 60 C-11.68 60.33 -10.36 60.66 -9 61 C-9.99 61.33 -10.98 61.66 -12 62 C-12.33 61.34 -12.66 60.68 -13 60 Z " fill="#5EB24F" transform="translate(179,14)"/>
<path d="M0 0 C0.99 -0.33 1.98 -0.66 3 -1 C3.125 1.375 3.125 1.375 3 4 C2.34 4.66 1.68 5.32 1 6 C-0.32 6 -1.64 6 -3 6 C-2.87625 7.794375 -2.87625 7.794375 -2.75 9.625 C-2.75796035 14.12260039 -4.03045887 16.54891166 -7 20 C-11.2 23 -11.2 23 -14 23 C-14.33 23.66 -14.66 24.32 -15 25 C-16.65 25 -18.3 25 -20 25 C-19.67 25.66 -19.34 26.32 -19 27 C-17.700625 26.938125 -16.40125 26.87625 -15.0625 26.8125 C-8.71857421 26.83251238 -3.35505158 28.09352967 1.625 32.125 C3.63007234 36.31742399 3.32279863 39.59585866 2 44 C-1.6956229 49.93539436 -6.58105372 52.87208714 -13.234375 54.5703125 C-18.77176595 55.46775172 -23.07952905 54.6940135 -28 52 C-30.89558807 49.84687041 -31.81283041 48.50645889 -33.0625 45.125 C-32.95920355 39.96017754 -29.47678041 37.47678041 -26 34 C-26.515625 33.608125 -27.03125 33.21625 -27.5625 32.8125 C-29 31 -29 31 -28.875 28.5 C-27.96490929 25.89974084 -27.09873235 24.73373542 -25 23 C-25.804375 22.38125 -26.60875 21.7625 -27.4375 21.125 C-30.10454614 18.9133032 -30.85088109 18.18443019 -31.2734375 14.828125 C-31.4551382 10.21572271 -31.36986189 7.63570012 -29 3.5625 C-21.50559524 -2.83897074 -9.00535933 -4.50267967 0 0 Z M-21.8125 3.0625 C-23.50193188 5.8189415 -23.87525322 7.75658375 -24 11 C-22.5500457 15.34986291 -21.85115325 17.4325645 -18 20 C-15.44539786 20.07272562 -15.44539786 20.07272562 -13 19 C-10.9344727 16.72791997 -10.03417638 15.09578029 -9.9375 11.99609375 C-10.19642095 9.06705055 -10.63998476 6.58739329 -12.1875 4.0625 C-15.3401584 2.2143899 -18.51520508 1.12960298 -21.8125 3.0625 Z M-25 39 C-25.4921119 42.69083925 -25.47772362 44.37401733 -23.1875 47.375 C-18.48296986 49.77338792 -14.17546336 49.90008059 -9 49 C-5.6037449 46.6692367 -4.29961386 45.39819799 -3.4375 41.375 C-3.80742292 38.88626447 -3.80742292 38.88626447 -5.75 37.25 C-12.13745491 33.70141394 -19.59822551 33.59822551 -25 39 Z " fill="#3A271B" transform="translate(197,297)"/>
<path d="M0 0 C0.33 1.32 0.66 2.64 1 4 C2.5159375 3.01 2.5159375 3.01 4.0625 2 C7.85002985 -0.14244113 10.61351705 -0.64984933 15 0 C18.53210147 2.19775202 20.4778961 4.16165104 22 8 C22.26437827 10.15863494 22.44545208 12.32838759 22.5625 14.5 C22.7775056 18.89342506 22.7775056 18.89342506 23.5546875 23.203125 C24.22852174 25.92210527 23.5533913 28.29453143 23 31 C24.65 31.33 26.3 31.66 28 32 C28 33.32 28 34.64 28 36 C20.74 36 13.48 36 6 36 C7.485 35.505 7.485 35.505 9 35 C9 34.01 9 33.02 9 32 C10.65 31.67 12.3 31.34 14 31 C13.8904307 27.54099522 13.75973152 24.08310891 13.625 20.625 C13.5940625 19.64015625 13.563125 18.6553125 13.53125 17.640625 C13.49257812 16.69960938 13.45390625 15.75859375 13.4140625 14.7890625 C13.36693115 13.48509521 13.36693115 13.48509521 13.31884766 12.15478516 C13.18770567 9.79038206 13.18770567 9.79038206 11 8 C9.08819451 7.71994942 9.08819451 7.71994942 7 7.8125 C5.948125 7.82216797 5.948125 7.82216797 4.875 7.83203125 C2.90943627 7.89293867 2.90943627 7.89293867 1 9 C0.67 16.26 0.34 23.52 0 31 C1.65 31.33 3.3 31.66 5 32 C5 33.32 5 34.64 5 36 C-0.94 36 -6.88 36 -13 36 C-14 32 -14 32 -13 30 C-11.68 30 -10.36 30 -9 30 C-8.67 22.74 -8.34 15.48 -8 8 C-9.98 7.34 -11.96 6.68 -14 6 C-14 5.01 -14 4.02 -14 3 C-12.23050388 2.49528803 -10.45934777 1.99639315 -8.6875 1.5 C-7.70136719 1.2215625 -6.71523437 0.943125 -5.69921875 0.65625 C-3 0 -3 0 0 0 Z " fill="#4C3526" transform="translate(134,295)"/>
<path d="M0 0 C4.48741845 2.48615324 7.11474899 5.40674698 8.75 10.3125 C9.2616518 16.5802346 9.43819272 21.97097951 5.75 27.3125 C2.07053263 31.46369396 -0.69315815 34.02840646 -6.2734375 34.6484375 C-15.24564033 34.75300863 -15.24564033 34.75300863 -19.8125 32.75 C-24.39657985 28.16592015 -28.06580512 21.9557952 -28.25 15.3125 C-26.77456879 9.55542526 -23.92545048 5.00936782 -19.25 1.3125 C-12.66677659 -2.28964111 -6.80919813 -3.10772308 0 0 Z M-18.25 8.3125 C-19.16923736 13.71301952 -19.54118142 20.14643244 -16.5 24.9375 C-12.60603066 29.14926304 -12.60603066 29.14926304 -7.25 30.75 C-3.56993592 30.21332399 -2.49239259 29.21930521 -0.25 26.3125 C1.48508692 21.10723925 1.54362201 15.64237494 -0.5 10.5 C-2.75047369 6.33483176 -2.75047369 6.33483176 -6.25 3.3125 C-12.21791911 2.00817129 -14.94018022 2.9848515 -18.25 8.3125 Z " fill="#3B281D" transform="translate(106.25,296.6875)"/>
<path d="M0 0 C4.48741845 2.48615324 7.11474899 5.40674698 8.75 10.3125 C9.32060449 16.58914941 9.04610875 21.78354339 5.75 27.3125 C0.87558194 32.29975182 -2.44840952 34.47205454 -9.5 34.625 C-15.20884981 34.58089189 -18.1071914 34.23726604 -22.25 30.3125 C-25.88487694 26.54780602 -27.2066058 22.05067405 -27.2890625 16.84765625 C-26.94158706 11.34596177 -26.16871893 7.42237595 -22.25 3.3125 C-14.91432044 -1.58228087 -8.35248901 -3.76016111 0 0 Z M-16.6875 5.3125 C-19.51460942 10.74055008 -19.80517225 15.21297012 -18.1875 21 C-16.43716808 25.59859932 -14.45520138 27.7563972 -10.25 30.3125 C-7.16382729 31.06310849 -7.16382729 31.06310849 -4.25 30.3125 C-1.92630635 28.55402913 -0.61536508 27.19546562 0.5 24.5 C1.31292734 17.38688575 0.91325506 11.30288199 -3.375 5.375 C-7.87472901 2.14693354 -12.12600899 1.56973815 -16.6875 5.3125 Z " fill="#3A271B" transform="translate(230.25,296.6875)"/>
<path d="M0 0 C4.09341499 -0.02469575 8.18680121 -0.04285793 12.28027344 -0.05493164 C13.67318477 -0.0599643 15.0660908 -0.06679098 16.45898438 -0.07543945 C18.45961246 -0.08755152 20.46027888 -0.09270412 22.4609375 -0.09765625 C23.66540527 -0.10289307 24.86987305 -0.10812988 26.11083984 -0.11352539 C29 0 29 0 31 1 C30.34 2.32 29.68 3.64 29 5 C28.030625 4.505 27.06125 4.01 26.0625 3.5 C21.71271619 1.60142633 17.66969796 1.71410012 13 2 C13.01160156 2.95261719 13.02320313 3.90523438 13.03515625 4.88671875 C13.04417969 6.14097656 13.05320312 7.39523437 13.0625 8.6875 C13.07410156 9.92886719 13.08570313 11.17023438 13.09765625 12.44921875 C13 16 13 16 12 21 C16.95 21 21.9 21 27 21 C26.67 21.99 26.34 22.98 26 24 C22.04 23.67 18.08 23.34 14 23 C13.91921223 26.43796837 13.85960209 29.87404727 13.8125 33.3125 C13.78736328 34.28896484 13.76222656 35.26542969 13.73632812 36.27148438 C13.72666016 37.20927734 13.71699219 38.14707031 13.70703125 39.11328125 C13.6913208 39.97735596 13.67561035 40.84143066 13.65942383 41.73168945 C14.07312368 44.48701944 14.79617266 45.34688128 17 47 C21.52925626 47.78302396 25.76425745 47.51489273 30 45.75 C33.54629168 42.64699478 33.93554983 40.81207215 34.3125 36.0625 C34.221763 32.32134364 33.35500374 29.98904321 31 27 C30.34 26.67 29.68 26.34 29 26 C29.33 25.01 29.66 24.02 30 23 C31.98 23.33 33.96 23.66 36 24 C36 24.66 36 25.32 36 26 C36.639375 26.268125 37.27875 26.53625 37.9375 26.8125 C40 28 40 28 41 31 C41.38981277 35.1320154 41.27518905 37.46020609 39.375 41.1875 C33.36885044 48.30004553 26.92191985 49.20358004 18 50 C11.91894909 50.28066389 5.97264291 50.32725398 0 49 C0 48.67 0 48.34 0 48 C0.804375 47.87625 1.60875 47.7525 2.4375 47.625 C3.283125 47.41875 4.12875 47.2125 5 47 C6.70949338 43.58101325 6.16321249 39.66838387 6.16796875 35.90625 C6.17129715 35.0037854 6.17462555 34.1013208 6.17805481 33.17150879 C6.18312194 31.26164256 6.1854632 29.35176747 6.18530273 27.44189453 C6.18749111 24.51189699 6.20565418 21.58227472 6.22460938 18.65234375 C6.22754289 16.79948046 6.22952797 14.94661537 6.23046875 13.09375 C6.23765427 12.21352173 6.24483978 11.33329346 6.25224304 10.4263916 C6.46567773 5.73050095 6.46567773 5.73050095 4 2 C2.68252676 1.30251417 1.35085807 0.63040043 0 0 Z " fill="#93775C" transform="translate(306,280)"/>
<path d="M0 0 C0.33 0 0.66 0 1 0 C1.06993164 0.66531738 1.13986328 1.33063477 1.21191406 2.01611328 C1.54099105 5.05452026 1.89524741 8.08948814 2.25 11.125 C2.35957031 12.17171875 2.46914062 13.2184375 2.58203125 14.296875 C3.29838251 20.25390129 4.01854217 24.4166939 8 29 C8.66 29.33 9.32 29.66 10 30 C9.50069085 31.99835548 9.00098313 33.99620347 8.48461914 35.99023438 C7.06009914 41.84319779 6.6191794 47.49128625 6.4375 53.5 C6.37786643 55.28139443 6.31428853 57.06266276 6.24609375 58.84375 C6.22216553 59.61912109 6.1982373 60.39449219 6.17358398 61.19335938 C6 63 6 63 5 64 C2.5 64.125 2.5 64.125 0 64 C-1.5919766 62.4080234 -1.42884305 60.57057844 -1.71875 58.37109375 C-1.84636719 57.41783203 -1.97398437 56.46457031 -2.10546875 55.48242188 C-2.30076172 53.97518555 -2.30076172 53.97518555 -2.5 52.4375 C-2.63019531 51.45974609 -2.76039063 50.48199219 -2.89453125 49.47460938 C-3.15051751 47.54436952 -3.4014876 45.61345719 -3.6472168 43.68188477 C-3.86505192 42.02588558 -4.09998004 40.37190993 -4.36254883 38.72241211 C-5.03689655 34.32469785 -4.81462489 30.97698479 -3.6875 26.6875 C-1.59820542 17.87987745 -0.81571922 9.00170148 0 0 Z " fill="#B9B9A7" transform="translate(180,206)"/>
<path d="M0 0 C0.66 0 1.32 0 2 0 C2 1.65 2 3.3 2 5 C2.66 5.33 3.32 5.66 4 6 C1.90132142 22.56851514 1.90132142 22.56851514 -3.81640625 27.59765625 C-5.48952196 28.81108764 -7.23977824 29.91678661 -9 31 C-6.69 30.67 -4.38 30.34 -2 30 C-2.33 30.66 -2.66 31.32 -3 32 C-3.66 32 -4.32 32 -5 32 C-5.495 32.99 -5.495 32.99 -6 34 C-12.28674891 35.4744453 -18.74158785 35.18606107 -25.16015625 35.18530273 C-27.25801321 35.18750843 -29.35535951 35.20575691 -31.453125 35.22460938 C-32.78645654 35.22754028 -34.11979057 35.2295271 -35.453125 35.23046875 C-37.26538574 35.23663208 -37.26538574 35.23663208 -39.11425781 35.24291992 C-42 35 -42 35 -44 33 C-43.34 33 -42.68 33 -42 33 C-42 32.34 -42 31.68 -42 31 C-40.35 30.34 -38.7 29.68 -37 29 C-36.67 20.42 -36.34 11.84 -36 3 C-35.34 3 -34.68 3 -34 3 C-33.91307926 7.27070558 -33.85963485 11.54118458 -33.8125 15.8125 C-33.78736328 17.02744141 -33.76222656 18.24238281 -33.73632812 19.49414062 C-33.72182617 21.23920898 -33.72182617 21.23920898 -33.70703125 23.01953125 C-33.68346558 24.62985229 -33.68346558 24.62985229 -33.65942383 26.27270508 C-34 29 -34 29 -35.51831055 30.8737793 C-36.00726807 31.24543213 -36.49622559 31.61708496 -37 32 C-33.00204108 32.95619733 -29.29196078 33.1039592 -25.1875 33.0625 C-23.44533203 33.04896484 -23.44533203 33.04896484 -21.66796875 33.03515625 C-20.34732422 33.01775391 -20.34732422 33.01775391 -19 33 C-20.6396875 32.38125 -20.6396875 32.38125 -22.3125 31.75 C-25.52894447 30.34361942 -27.44900185 29.28446667 -29 26 C-29.1875 22.25 -29.1875 22.25 -29 19 C-28.01 19 -27.02 19 -26 19 C-25.95101563 19.63808594 -25.90203125 20.27617187 -25.8515625 20.93359375 C-25.77679688 21.75988281 -25.70203125 22.58617187 -25.625 23.4375 C-25.55539062 24.26121094 -25.48578125 25.08492188 -25.4140625 25.93359375 C-25.27742188 26.61550781 -25.14078125 27.29742187 -25 28 C-20.81857256 30.09071372 -15.55341387 29.43450877 -11 29 C-5.91334497 26.50129227 -3.04448245 23.57689831 -0.9296875 18.359375 C0.12568645 14.54583887 0.22366816 11.04136702 0.125 7.125 C0.11597656 6.43664062 0.10695313 5.74828125 0.09765625 5.0390625 C0.07432513 3.35922162 0.03846326 1.67956254 0 0 Z " fill="#77644F" transform="translate(289,296)"/>
<path d="M0 0 C1.32 0 2.64 0 4 0 C3.88185874 4.37844408 3.75761831 8.75665929 3.62768555 13.13476562 C3.58433411 14.62462641 3.54265916 16.11453695 3.50268555 17.60449219 C3.44498785 19.74429327 3.38129245 21.88384385 3.31640625 24.0234375 C3.26141968 25.95582275 3.26141968 25.95582275 3.20532227 27.92724609 C3 31 3 31 2 33 C-1 32 -1 32 -2.1875 29.9375 C-2.455625 29.298125 -2.72375 28.65875 -3 28 C-3.99 28 -4.98 28 -6 28 C-6.66 28.66 -7.32 29.32 -8 30 C-7.67 27.69 -7.34 25.38 -7 23 C-6.34 23.33 -5.68 23.66 -5 24 C-4.67 23.01 -4.34 22.02 -4 21 C-6.49064888 20.31292445 -8.37886292 20 -11 20 C-10.38125 19.4225 -9.7625 18.845 -9.125 18.25 C-6.11608934 15.06409459 -5.16803242 12.60911753 -4 8.375 C-3 5 -3 5 -1 3 C-0.67 2.01 -0.34 1.02 0 0 Z M-5 28 C-5 31 -5 31 -5 31 Z " fill="#50A940" transform="translate(179,168)"/>
<path d="M0 0 C0.66 0.33 1.32 0.66 2 1 C2.0494009 6.78408559 2.08572 12.56804864 2.10986328 18.35229492 C2.11992707 20.32041564 2.13357934 22.28852138 2.15087891 24.2565918 C2.17511059 27.08385918 2.18647923 29.91092905 2.1953125 32.73828125 C2.20563507 33.61962234 2.21595764 34.50096344 2.22659302 35.40901184 C2.22674408 36.22963608 2.22689514 37.05026031 2.22705078 37.89575195 C2.231492 38.61745071 2.23593323 39.33914948 2.24050903 40.0827179 C2 42 2 42 0 45 C9.73827294 47.1854293 20.54614994 46.82431521 29.5 42.1875 C32.13223689 39.88429272 33.07324943 38.33630206 34 35 C34.66 35 35.32 35 36 35 C35.74476126 33.37247769 35.47025506 31.74796804 35.1875 30.125 C35.03667969 29.22007812 34.88585937 28.31515625 34.73046875 27.3828125 C34.16948699 24.65587522 34.16948699 24.65587522 31 23 C31 22.34 31 21.68 31 21 C29.35 20.67 27.7 20.34 26 20 C26.1875 17.625 26.1875 17.625 27 15 C29.5625 13.6875 29.5625 13.6875 32 13 C32 14.32 32 15.64 32 17 C30.35 17 28.7 17 27 17 C27 17.66 27 18.32 27 19 C27.721875 19.0825 28.44375 19.165 29.1875 19.25 C32.63494802 20.16931947 34.45204052 21.52281717 37 24 C38.52478931 28.35523653 37.99114157 32.56675437 37 37 C35.13291161 40.66749505 34.05851323 42.50766826 30.3125 44.25 C29.549375 44.4975 28.78625 44.745 28 45 C27.505 45.99 27.505 45.99 27 47 C23.06856656 48.13938308 19.23864828 48.11558876 15.16796875 48.09765625 C13.87568359 48.09443359 12.58339844 48.09121094 11.25195312 48.08789062 C9.89713474 48.07953665 8.54231703 48.07107172 7.1875 48.0625 C5.81315265 48.05748 4.43880355 48.05291797 3.06445312 48.04882812 C-0.29040924 48.03705668 -3.64518221 48.02061283 -7 48 C-6.67 46.68 -6.34 45.36 -6 44 C-3.03 43.505 -3.03 43.505 0 43 C0.10333084 31.11218381 0.15180771 19.2725845 -0.73217773 7.41064453 C-1.09878829 2.19757659 -1.09878829 2.19757659 0 0 Z " fill="#766451" transform="translate(311,283)"/>
<path d="M0 0 C2.25 1.75 2.25 1.75 4 4 C4.77730469 4.88945312 4.77730469 4.88945312 5.5703125 5.796875 C7.31647416 8.48768149 7.45881682 10.31628011 7.625 13.5 C7.83448725 17.35901006 7.83448725 17.35901006 8.55078125 21.140625 C9.21547741 23.8918891 8.55972041 26.26358908 8 29 C8.66 29.33 9.32 29.66 10 30 C10.33 30.66 10.66 31.32 11 32 C6.38 32 1.76 32 -3 32 C-1.68 31.34 -0.36 30.68 1 30 C0.94810241 26.41548691 0.85302216 22.83337949 0.75 19.25 C0.73582031 18.23421875 0.72164062 17.2184375 0.70703125 16.171875 C0.60427943 10.41303611 0.60427943 10.41303611 -1.8125 5.34375 C-4.80155574 3.50761576 -7.53974674 3.26617333 -11 3 C-8.9254602 -1.1490796 -4.06631082 -0.35669393 0 0 Z " fill="#4F3628" transform="translate(149,297)"/>
<path d="M0 0 C1.65 0.33 3.3 0.66 5 1 C5 4.96 5 8.92 5 13 C5.66 13.33 6.32 13.66 7 14 C6.34 14.66 5.68 15.32 5 16 C4.44145227 20.59446229 4.44145227 20.59446229 6.2265625 24.6484375 C8.37052793 26.28238472 10.049288 26.69044556 12.6875 27.1875 C13.89986328 27.42533203 13.89986328 27.42533203 15.13671875 27.66796875 C15.75160156 27.77753906 16.36648438 27.88710938 17 28 C13.16405456 30.55729696 10.00351901 30.29474578 5.5625 30.25 C4.79873047 30.25773437 4.03496094 30.26546875 3.24804688 30.2734375 C-0.64205203 30.25989495 -3.65867723 30.2453689 -7 28 C-5.35 27.67 -3.7 27.34 -2 27 C-1.96241577 25.82642944 -1.96241577 25.82642944 -1.92407227 24.62915039 C-1.80850212 21.10675051 -1.68560051 17.5846444 -1.5625 14.0625 C-1.50352539 12.21495117 -1.50352539 12.21495117 -1.44335938 10.33007812 C-1.40146484 9.16025391 -1.35957031 7.99042969 -1.31640625 6.78515625 C-1.26141968 5.15912476 -1.26141968 5.15912476 -1.20532227 3.50024414 C-1 1 -1 1 0 0 Z " fill="#92775C" transform="translate(256,300)"/>
<path d="M0 0 C0.99 0 1.98 0 3 0 C3.33 1.32 3.66 2.64 4 4 C5.010625 3.34 6.02125 2.68 7.0625 2 C10.85002985 -0.14244113 13.61351705 -0.64984933 18 0 C21.45025934 1.99348317 22.74292222 3.45231256 24.4375 7.0625 C25 10 25 10 23 13 C22.5359375 11.3603125 22.5359375 11.3603125 22.0625 9.6875 C21.41662103 7.44592006 20.7376883 5.2130649 20 3 C18.52093108 2.97310784 17.04172517 2.95365379 15.5625 2.9375 C14.73878906 2.92589844 13.91507813 2.91429687 13.06640625 2.90234375 C11.00836062 2.76732652 11.00836062 2.76732652 10 4 C11.670625 4.6496875 11.670625 4.6496875 13.375 5.3125 C17 7 17 7 19 10 C19.22705078 12.36010742 19.22705078 12.36010742 19.1953125 15.10546875 C19.18886719 16.08837891 19.18242187 17.07128906 19.17578125 18.08398438 C19.15902344 19.10814453 19.14226562 20.13230469 19.125 21.1875 C19.11597656 22.22326172 19.10695312 23.25902344 19.09765625 24.32617188 C19.0740786 26.88434685 19.0411703 29.44205748 19 32 C18.01 32.495 18.01 32.495 17 33 C18.4370809 33.05422947 19.87475462 33.09289723 21.3125 33.125 C22.11300781 33.14820313 22.91351563 33.17140625 23.73828125 33.1953125 C26.28388576 33.15817322 26.28388576 33.15817322 29 31 C29.66 31.33 30.32 31.66 31 32 C31 33.32 31 34.64 31 36 C23.74 36 16.48 36 9 36 C10.485 35.505 10.485 35.505 12 35 C12 34.01 12 33.02 12 32 C13.65 31.67 15.3 31.34 17 31 C16.8904307 27.54099522 16.75973152 24.08310891 16.625 20.625 C16.5940625 19.64015625 16.563125 18.6553125 16.53125 17.640625 C16.49257812 16.69960938 16.45390625 15.75859375 16.4140625 14.7890625 C16.36693115 13.48509521 16.36693115 13.48509521 16.31884766 12.15478516 C16.18770567 9.79038206 16.18770567 9.79038206 14 8 C9.5267014 7.78355007 6.36357958 7.90910511 2 9 C1.34 6.03 0.68 3.06 0 0 Z " fill="#3F2D1F" transform="translate(131,295)"/>
<path d="M0 0 C0.66 0.33 1.32 0.66 2 1 C1.835 1.495 1.67 1.99 1.5 2.5 C0.12179945 9.39100275 0.88848731 15.70259584 4 22 C7.08943785 25.25203984 9.55641217 26.49216139 14 27 C13 28.5625 13 28.5625 11 30 C6.13061762 30 3.8381111 29.52184276 -0.3125 26.9375 C-4.03509756 22.86861429 -5.91903515 19.23319616 -6.05859375 13.66015625 C-5.61333872 7.96657591 -4.09331843 4.09331843 0 0 Z " fill="#4D3527" transform="translate(211,300)"/>
<path d="M0 0 C0.33 0.99 0.66 1.98 1 3 C2.85398698 3.3135643 4.70819944 3.62579549 6.5625 3.9375 C7.65691406 4.123125 8.75132812 4.30875 9.87890625 4.5 C12.25676253 4.88093317 14.60739752 5.18619821 17 5.4375 C20.17768115 6.03331521 21.68829353 6.77720532 24 9 C25 11 25 11 24.51171875 13.12890625 C24.23972656 13.93199219 23.96773437 14.73507812 23.6875 15.5625 C23.42324219 16.36816406 23.15898437 17.17382812 22.88671875 18.00390625 C22 20 22 20 20 21 C19.38581611 19.15744833 18.81418768 17.2992221 18.31640625 15.421875 C17.1881894 12.73100321 17.1881894 12.73100321 14.21484375 11.890625 C13.13332031 11.67921875 12.05179688 11.4678125 10.9375 11.25 C5.04484305 10.04484305 5.04484305 10.04484305 4 9 C1.99279077 9.28674418 -0.0085944 9.61866701 -2 10 C-2.82638376 7.10765685 -3 5.11257569 -3 2 C-2.01 1.34 -1.02 0.68 0 0 Z " fill="#4F3729" transform="translate(174,322)"/>
<path d="M0 0 C6.63723109 -0.54181478 10.5494524 0.07560573 16 4 C17.8125 6.125 17.8125 6.125 19 8 C19.66 8.66 20.32 9.32 21 10 C21.88189581 16.26489619 21.12361257 21.53367801 18 27 C16 29 16 29 14 30 C13.01 29.67 12.02 29.34 11 29 C11.495 27.989375 11.99 26.97875 12.5 25.9375 C15.16577316 19.6031152 14.03471447 14.32728401 11.94921875 8.015625 C10.91535722 5.82026472 9.85319275 4.55228774 8 3 C6.05396726 2.40929986 6.05396726 2.40929986 4 2 C2.65743713 1.35212104 1.32267513 0.68757016 0 0 Z " fill="#4F3728" transform="translate(218,297)"/>
<path d="M0 0 C0.33 0 0.66 0 1 0 C1.35345305 4.5065264 1.6047762 7.90675071 -0.625 11.9375 C-3.31725959 14.27551491 -5.60508712 15.01924739 -9 16 C-9.33 16.66 -9.66 17.32 -10 18 C-11.65 18 -13.3 18 -15 18 C-14.67 18.66 -14.34 19.32 -14 20 C-12.700625 19.938125 -11.40125 19.87625 -10.0625 19.8125 C-4.99689638 19.82050253 -0.55552662 20.74581602 4 23 C6.0625 25.1875 6.0625 25.1875 7 27 C6.01 27 5.02 27 4 27 C3.34 26.34 2.68 25.68 2 25 C-1.35469646 24.53550357 -4.68262831 24.21245481 -8.05859375 23.96484375 C-11.6514325 23.61416151 -13.68798678 23.25758101 -16.5078125 20.9296875 C-17.00023437 20.29289062 -17.49265625 19.65609375 -18 19 C-18.99 19.66 -19.98 20.32 -21 21 C-20.34 22.65 -19.68 24.3 -19 26 C-19.99 26 -20.98 26 -22 26 C-22.66 25.34 -23.32 24.68 -24 24 C-23.77256695 21.04337034 -23.38764062 19.44966312 -21.4375 17.1875 C-20.963125 16.795625 -20.48875 16.40375 -20 16 C-21.65 14.35 -23.3 12.7 -25 11 C-20 13 -20 13 -15 15 C-15.495 14.54625 -15.99 14.0925 -16.5 13.625 C-18 12 -18 12 -18 10 C-17.278125 10.350625 -16.55625 10.70125 -15.8125 11.0625 C-12.62284254 12.12571915 -11.19867449 11.82017295 -8 11 C-6 11 -4 11 -2 11 C-1.34 7.37 -0.68 3.74 0 0 Z " fill="#382519" transform="translate(192,304)"/>
<path d="M0 0 C0.33 1.32 0.66 2.64 1 4 C1.51949219 3.71125 2.03898437 3.4225 2.57421875 3.125 C9.50087873 -0.56239016 9.50087873 -0.56239016 14 0 C14 0.66 14 1.32 14 2 C12.35 2.33 10.7 2.66 9 3 C9 3.66 9 4.32 9 5 C5.04 6.98 5.04 6.98 1 9 C0.67 16.26 0.34 23.52 0 31 C1.65 31.33 3.3 31.66 5 32 C5 33.32 5 34.64 5 36 C-0.94 36 -6.88 36 -13 36 C-13 35.01 -13 34.02 -13 33 C-8.71 33 -4.42 33 0 33 C-0.66 32.67 -1.32 32.34 -2 32 C-2 22.43 -2 12.86 -2 3 C-2.99 3 -3.98 3 -5 3 C-5 2.34 -5 1.68 -5 1 C-2 0 -2 0 0 0 Z " fill="#3B2A1E" transform="translate(25,295)"/>
<path d="M0 0 C1.1171875 1.75390625 1.1171875 1.75390625 2 4 C1.3203125 5.96484375 1.3203125 5.96484375 0.125 7.9375 C-1.70077699 11.20564082 -2.2226949 13.21418664 -2 17 C-2.66 17.66 -3.32 18.32 -4 19 C-4 19.969375 -4 20.93875 -4 21.9375 C-4 25 -4 25 -6 28 C-6.38499891 29.65549531 -6.72793135 31.3222433 -7 33 C-6.34 33.33 -5.68 33.66 -5 34 C-4.94527912 35.39538254 -4.90688462 36.79140897 -4.875 38.1875 C-4.85179688 38.96480469 -4.82859375 39.74210937 -4.8046875 40.54296875 C-5 43 -5 43 -6 45.171875 C-7.25544285 48.72242432 -7.25038806 51.99340734 -7.1953125 55.70703125 C-7.1924826 56.43242599 -7.18965271 57.15782074 -7.18673706 57.90519714 C-7.17559799 60.20780368 -7.15050566 62.51001227 -7.125 64.8125 C-7.11496206 66.37955165 -7.10583763 67.94660943 -7.09765625 69.51367188 C-7.0756793 73.34259978 -7.04119339 77.17123256 -7 81 C-7.33 81 -7.66 81 -8 81 C-9.79259002 72.87719887 -10.31909261 65.11778635 -10.25 56.8125 C-10.24250732 55.62140625 -10.23501465 54.4303125 -10.22729492 53.203125 C-10.00211627 34.70576766 -6.72154402 17.24477767 0 0 Z " fill="#4D8F40" transform="translate(131,80)"/>
<path d="M0 0 C2.8125 1.125 2.8125 1.125 5 3 C5.8125 6.1875 5.8125 6.1875 6 9 C5.34 7.68 4.68 6.36 4 5 C3.34 5 2.68 5 2 5 C2 4.34 2 3.68 2 3 C-2.00254456 2.90818866 -2.00254456 2.90818866 -6 3 C-6.33 3.33 -6.66 3.66 -7 4 C-5.88625 4.4125 -4.7725 4.825 -3.625 5.25 C-1.26778065 6.1230442 -0.24329035 6.60752626 1.09570312 8.76757812 C2.11402634 11.28149482 2.22997299 13.06210702 2.1953125 15.765625 C2.18886719 16.65507812 2.18242188 17.54453125 2.17578125 18.4609375 C2.15902344 19.38132812 2.14226563 20.30171875 2.125 21.25 C2.11597656 22.18585938 2.10695313 23.12171875 2.09765625 24.0859375 C2.07413636 26.39088657 2.04126853 28.6953116 2 31 C1.67 31 1.34 31 1 31 C0.96261719 29.75863281 0.92523438 28.51726562 0.88671875 27.23828125 C0.8210405 25.59632489 0.7545938 23.95439913 0.6875 22.3125 C0.66494141 21.49587891 0.64238281 20.67925781 0.61914062 19.83789062 C0.41011321 15.14427512 0.07577139 11.78671612 -3 8 C-5.99177552 6.81903598 -7.61897372 6.91340312 -10.75 7.625 C-13.17664497 8.76330016 -13.17664497 8.76330016 -13.60546875 11.03515625 C-14.12711718 14.95526676 -14.36063556 18.86456111 -14.5625 22.8125 C-14.60568359 23.60076172 -14.64886719 24.38902344 -14.69335938 25.20117188 C-14.79878321 27.13394215 -14.89983094 29.06695026 -15 31 C-15.33 31 -15.66 31 -16 31 C-16.01401855 29.94872925 -16.01401855 29.94872925 -16.02832031 28.8762207 C-16.08214544 25.68760975 -16.16576936 22.50044667 -16.25 19.3125 C-16.26417969 18.20970703 -16.27835938 17.10691406 -16.29296875 15.97070312 C-16.43005757 9.51187634 -16.43005757 9.51187634 -19.046875 3.73046875 C-19.69140625 3.15941406 -20.3359375 2.58835937 -21 2 C-18 2 -18 2 -16.0546875 3.1171875 C-14.03826075 4.25843178 -14.03826075 4.25843178 -12.0703125 3.3203125 C-11.42835937 2.92585938 -10.78640625 2.53140625 -10.125 2.125 C-6.54133524 0.16362504 -4.1567628 -0.64660755 0 0 Z " fill="#3A281B" transform="translate(61,295)"/>
<path d="M0 0 C0.33 0 0.66 0 1 0 C1.11275269 0.99797607 1.11275269 0.99797607 1.2277832 2.01611328 C1.57768486 5.05388384 1.9449266 8.08931916 2.3125 11.125 C2.43044922 12.17171875 2.54839844 13.2184375 2.66992188 14.296875 C3.3498646 19.80615449 4.06564503 24.24913957 7 29 C6.01 28.67 5.02 28.34 4 28 C3.67 27.01 3.34 26.02 3 25 C-0.46760003 32.20083176 -0.46760003 32.20083176 -2 40 C-1.67 40.33 -1.34 40.66 -1 41 C-0.95919217 42.99958364 -0.95745644 45.00045254 -1 47 C-1.66 47 -2.32 47 -3 47 C-4.74025974 40.19960042 -5.11329678 34.74320839 -3.71484375 27.87890625 C-2.69859524 22.36450858 -2.05178116 16.81487065 -1.375 11.25 C-1.24005127 10.15276611 -1.10510254 9.05553223 -0.96606445 7.92504883 C-0.64184728 5.28362629 -0.31982932 2.64195682 0 0 Z " fill="#9CA484" transform="translate(180,206)"/>
<path d="M0 0 C4.35581651 -0.10007178 8.71099593 -0.17202448 13.06762695 -0.21972656 C14.54463378 -0.23964487 16.02156384 -0.26679007 17.49829102 -0.30175781 C37.63750253 -0.76614112 37.63750253 -0.76614112 45.22387695 5.9765625 C48.25684014 9.21129366 51.02147931 12.59665692 52 17 C51.70600948 18.34255669 51.37756808 19.67851173 51 21 C50.75765625 20.40832031 50.5153125 19.81664062 50.265625 19.20703125 C47.53341023 12.76530951 45.4227542 7.85507565 38.765625 4.87890625 C32.04379499 2.27430335 25.48891015 2.55951425 18.375 2.75 C17.08464844 2.76804687 15.79429687 2.78609375 14.46484375 2.8046875 C11.30910302 2.85143921 8.15495899 2.91695795 5 3 C5.49113281 3.43957031 5.98226562 3.87914062 6.48828125 4.33203125 C8 6 8 6 8.1875 8.6875 C8.125625 9.450625 8.06375 10.21375 8 11 C7.34 11 6.68 11 6 11 C5.67 9.35 5.34 7.7 5 6 C2.69 5.34 0.38 4.68 -2 4 C-1.34 2.68 -0.68 1.36 0 0 Z " fill="#77644E" transform="translate(247,278)"/>
<path d="M0 0 C0.66 0.33 1.32 0.66 2 1 C1.67386719 1.70898438 1.34773438 2.41796875 1.01171875 3.1484375 C-0.06470065 6.18236092 -0.23604195 8.42123104 -0.1875 11.625 C-0.18105469 12.56601562 -0.17460938 13.50703125 -0.16796875 14.4765625 C0.05859355 17.88026596 0.56772513 19.56772513 3 22 C3.226875 22.639375 3.45375 23.27875 3.6875 23.9375 C5.72949843 27.14635467 8.48144608 27.69683188 12 29 C12 29.33 12 29.66 12 30 C10.56163249 29.88541307 9.12429034 29.75790884 7.6875 29.625 C6.88699219 29.55539062 6.08648437 29.48578125 5.26171875 29.4140625 C3 29 3 29 0 27 C0 26.34 0 25.68 0 25 C-0.61875 24.835 -1.2375 24.67 -1.875 24.5 C-4.64470973 22.54491078 -5.09308917 20.53654878 -5.7421875 17.28515625 C-6.26577395 12.64427632 -6.34841631 8.16012744 -3.8125 4.09765625 C-2.4375 2.4375 -2.4375 2.4375 0 0 Z " fill="#4F3729" transform="translate(87,300)"/>
<path d="M0 0 C5.53678576 -0.28638547 9.30136305 -0.31040331 14 3 C17.97387826 8.0196357 18.57676694 12.06161722 18.32421875 18.41015625 C17.75045129 22.99338306 16.30103327 25.88482862 12.8125 28.875 C12.214375 29.24625 11.61625 29.6175 11 30 C11.165 28.948125 11.33 27.89625 11.5 26.8125 C12.05959893 23.18641598 12.05959893 23.18641598 12 20.25 C12 18 12 18 13 15 C12.18108714 10.46255425 10.80978492 6.85240518 7.625 3.5 C5.00390152 2.00222944 2.98467725 1.34110597 0 1 C0 0.67 0 0.34 0 0 Z " fill="#4E3729" transform="translate(95,297)"/>
<path d="M0 0 C0 0.66 0 1.32 0 2 C0.66 2 1.32 2 2 2 C4.25020091 4.25020091 4.98684432 5.7933728 5.02172852 8.99291992 C4.95103149 10.10050659 4.95103149 10.10050659 4.87890625 11.23046875 C4.83056641 12.03291016 4.78222656 12.83535156 4.73242188 13.66210938 C4.67634766 14.49548828 4.62027344 15.32886719 4.5625 16.1875 C4.51029297 17.03248047 4.45808594 17.87746094 4.40429688 18.74804688 C4.27476311 20.83236299 4.13806823 22.91623182 4 25 C2.68 25.33 1.36 25.66 0 26 C-0.04898438 24.74703125 -0.09796875 23.4940625 -0.1484375 22.203125 C-0.22348583 20.55206179 -0.29903277 18.90102119 -0.375 17.25 C-0.4059375 16.425 -0.436875 15.6 -0.46875 14.75 C-0.50742187 13.95078125 -0.54609375 13.1515625 -0.5859375 12.328125 C-0.6173584 11.5949707 -0.6487793 10.86181641 -0.68115234 10.10644531 C-1.04969405 7.67169965 -1.64367575 6.05760238 -3 4 C-6.42215347 2.74843159 -6.42215347 2.74843159 -10 2 C-10.99 1.67 -11.98 1.34 -13 1 C-8.31506124 -1.48887372 -5.0555786 -0.85687773 0 0 Z " fill="#4F3728" transform="translate(63,298)"/>
<path d="M0 0 C7.98251529 11.97377294 7.49815975 29.22724726 7.5 43.125 C7.50412903 43.88241486 7.50825806 44.63982971 7.51251221 45.42019653 C7.51787851 47.59593639 7.49874483 49.7697989 7.46875 51.9453125 C7.45263672 53.20875488 7.43652344 54.47219727 7.41992188 55.77392578 C6.98012745 59.15267199 6.30596677 60.55546086 4 63 C4.00523682 62.01080566 4.01047363 61.02161133 4.01586914 60.00244141 C4.03394523 56.33855084 4.04544158 52.67466423 4.05493164 49.01074219 C4.05996588 47.42382139 4.06679369 45.83690523 4.07543945 44.25 C4.08754482 41.97134251 4.09323733 39.69274624 4.09765625 37.4140625 C4.10281754 36.70255035 4.10797882 35.99103821 4.11329651 35.25796509 C4.17314758 31.50406444 4.17314758 31.50406444 3 28 C3.66 28 4.32 28 5 28 C4.20882096 26.00016466 4.20882096 26.00016466 3 24 C2.01 23.67 1.02 23.34 0 23 C0.33 22.484375 0.66 21.96875 1 21.4375 C3.42055925 15.53738684 1.53976746 9.87036345 0 4 C0 2.68 0 1.36 0 0 Z " fill="#4B8E3D" transform="translate(232,95)"/>
<path d="M0 0 C6.12164009 -0.38260251 11.61719634 -0.21996156 17 3 C19.95343945 6.17494741 21.23846305 8.72550544 21.5 13 C21.27436678 17.20644782 19.75147083 19.78995069 17 23 C13.97631726 24.88657128 11.54294095 25.32099175 8 25.375 C7.154375 25.40335937 6.30875 25.43171875 5.4375 25.4609375 C3 25 3 25 0.703125 23.5546875 C-1.85404262 19.71893607 -1.43269397 16.24708223 -1.25 11.75 C-1.23195313 10.90953125 -1.21390625 10.0690625 -1.1953125 9.203125 C-1.14830798 7.13492605 -1.07656724 5.06731559 -1 3 C-0.01 3.33 0.98 3.66 2 4 C1.835 4.61875 1.67 5.2375 1.5 5.875 C0.64329508 11.22940575 0.27375999 16.82127997 2 22 C9.44236983 22.66687449 9.44236983 22.66687449 16.1875 20 C18.18764996 16.68940697 18.73033879 14.74138193 18.5 10.93359375 C17.65163253 7.65279768 15.5881706 6.03356261 13 4 C10.43106162 2.71553081 8.23423663 2.67022856 5.375 2.4375 C4.37210937 2.35371094 3.36921875 2.26992188 2.3359375 2.18359375 C1.56507813 2.12300781 0.79421875 2.06242187 0 2 C0 1.34 0 0.68 0 0 Z " fill="#786450" transform="translate(320,303)"/>
<path d="M0 0 C0.66 0.66 1.32 1.32 2 2 C2.69609375 2.64324219 3.3921875 3.28648437 4.109375 3.94921875 C6.91853741 8.48218537 6.43215642 12.59652094 6.25 17.8125 C6.23195313 18.79154297 6.21390625 19.77058594 6.1953125 20.77929688 C6.14832887 23.18720771 6.08265694 25.59309335 6 28 C4.68 28.33 3.36 28.66 2 29 C2.18046875 28.49597656 2.3609375 27.99195313 2.546875 27.47265625 C3.17500387 24.04502201 2.71124288 20.85399193 2.25 17.4375 C2.13785156 16.42913086 2.13785156 16.42913086 2.0234375 15.40039062 C1.65314772 12.57552847 1.29977082 10.41781089 -0.37890625 8.078125 C-2.77785416 6.48268012 -5.17741069 6.31362103 -8 6 C-8 5.01 -8 4.02 -8 3 C-5.36 2.67 -2.72 2.34 0 2 C0 1.34 0 0.68 0 0 Z " fill="#4E3728" transform="translate(39,295)"/>
<path d="M0 0 C4.41077344 -0.07471341 8.82120184 -0.12886513 13.23242188 -0.16479492 C14.72988307 -0.17978888 16.22730105 -0.20019105 17.72460938 -0.22631836 C33.89452457 -0.50120692 33.89452457 -0.50120692 40 3 C40.68945312 5.10864258 40.68945312 5.10864258 41 7 C39.02 6.67 37.04 6.34 35 6 C35 5.34 35 4.68 35 4 C30.75744534 3.08558531 26.48858341 2.49314235 22.1875 1.9375 C21.14819336 1.80118164 21.14819336 1.80118164 20.08789062 1.66210938 C18.39212308 1.43990535 16.69608799 1.21974473 15 1 C15 1.66 15 2.32 15 3 C14.34 3 13.68 3 13 3 C12.67 4.32 12.34 5.64 12 7 C7.40592168 6.50334288 7.40592168 6.50334288 5.4375 4.0625 C4.963125 3.381875 4.48875 2.70125 4 2 C2.68841699 1.29150002 1.35633327 0.61853235 0 0 Z " fill="#93775C" transform="translate(248,280)"/>
<path d="M0 0 C1.7015625 0.2165625 1.7015625 0.2165625 3.4375 0.4375 C7.95353056 1.00301367 12.47547181 1.50774809 17 2 C17.33 2.99 17.66 3.98 18 5 C16.35 5.33 14.7 5.66 13 6 C13 8.64 13 11.28 13 14 C12.34 14 11.68 14 11 14 C10.731875 14.639375 10.46375 15.27875 10.1875 15.9375 C9 18 9 18 6 19 C5.67 18.01 5.34 17.02 5 16 C5.66 16 6.32 16 7 16 C6.91162485 9.30496035 6.91162485 9.30496035 4.0625 3.5 C3.381875 3.005 2.70125 2.51 2 2 C1.34 1.34 0.68 0.68 0 0 Z " fill="#4D3627" transform="translate(181,297)"/>
<path d="M0 0 C4.05782253 1.56070097 7.10270785 2.99460545 9 7 C9.55541103 11.18101081 9.67126354 14.72140278 7.6875 18.5 C4.55429281 21.28507306 1.43688368 21.13565082 -2.5625 21.125 C-3.53316406 21.12757813 -4.50382812 21.13015625 -5.50390625 21.1328125 C-8 21 -8 21 -10 20 C-10.02714735 17.77090129 -10.04646254 15.54170633 -10.0625 13.3125 C-10.07990234 11.45044922 -10.07990234 11.45044922 -10.09765625 9.55078125 C-10.01428255 6.51931358 -9.85636773 3.90303274 -9 1 C-5.92805092 -0.53597454 -3.39755707 -0.2265038 0 0 Z M-7 2 C-8.53266582 5.06533164 -8.10276471 8.26754272 -8.0625 11.625 C-8.05798828 12.33140625 -8.05347656 13.0378125 -8.04882812 13.765625 C-8.03703875 15.51045275 -8.01910324 17.255237 -8 19 C-6.06318839 19.08107583 -4.1254066 19.13922475 -2.1875 19.1875 C-1.10855469 19.22230469 -0.02960938 19.25710938 1.08203125 19.29296875 C3.98108422 19.25023117 3.98108422 19.25023117 5.83203125 17.6640625 C7.63167078 15.10002758 7.87783254 13.11527019 8 10 C6.8551403 6.86669978 5.91623001 4.74655779 3.3125 2.625 C-0.16824087 1.68425922 -3.40015019 1.88000501 -7 2 Z " fill="#7B6652" transform="translate(328,281)"/>
<path d="M0 0 C0.433125 0.45375 0.86625 0.9075 1.3125 1.375 C3.34266231 3.32997111 5.48167087 4.74083543 8 6 C7 10 6 14 5 18 C3.49440461 16.03617993 2.10868317 14.21736634 1 12 C0.3503125 12.99 0.3503125 12.99 -0.3125 14 C-0.869375 14.66 -1.42625 15.32 -2 16 C-2.99 16 -3.98 16 -5 16 C-3.71291613 10.45563871 -2.08135307 5.29798964 0 0 Z " fill="#B6B49D" transform="translate(182,230)"/>
<path d="M0 0 C2.61299771 3.91949657 2.07289964 7.0019329 1.75 11.5 C1.71003906 12.27214844 1.67007813 13.04429687 1.62890625 13.83984375 C1.38485515 17.64572166 1.15191697 19.77212455 -1 23 C-2.32 22.67 -3.64 22.34 -5 22 C-4.00804829 4.00804829 -4.00804829 4.00804829 0 0 Z " fill="#C9C9BC" transform="translate(185,246)"/>
<path d="M0 0 C0.66 0 1.32 0 2 0 C1.89300781 0.65226562 1.78601563 1.30453125 1.67578125 1.9765625 C1.09061335 6.24262527 0.7973782 9.33253994 2.0625 13.5 C4.43456103 16.56072391 6.27275614 17.17172359 10 18 C8.3125 19.125 8.3125 19.125 6 20 C3.5625 19.375 3.5625 19.375 1 18 C0.05125 17.505 -0.8975 17.01 -1.875 16.5 C-4.40116429 13.52804202 -4.27680613 12.76456331 -4 9 C-3.53490433 5.18621552 -2.63034605 2.84077373 0 0 Z " fill="#4E3628" transform="translate(171,300)"/>
<path d="M0 0 C-2.33214148 1.20628008 -4.49642139 2.1654738 -7 3 C-6.34773438 3.45246094 -5.69546875 3.90492188 -5.0234375 4.37109375 C-1.94183893 8.37479227 -2.49245869 12.15498358 -2.625 17.0625 C-2.62628906 17.97322266 -2.62757813 18.88394531 -2.62890625 19.82226562 C-2.71851504 26.57777256 -2.71851504 26.57777256 -5 30 C-6.27491216 27.45017567 -6.02596616 25.83534576 -5.87890625 22.9921875 C-5.83056641 22.00605469 -5.78222656 21.01992188 -5.73242188 20.00390625 C-5.67634766 18.97136719 -5.62027344 17.93882812 -5.5625 16.875 C-5.51029297 15.83472656 -5.45808594 14.79445313 -5.40429688 13.72265625 C-5.27439054 11.14814884 -5.13941748 8.57400704 -5 6 C-6.98 5.34 -8.96 4.68 -11 4 C-11 3.01 -11 2.02 -11 1 C-3.375 -1.125 -3.375 -1.125 0 0 Z " fill="#3F2A1C" transform="translate(131,297)"/>
<path d="M0 0 C0.66 0 1.32 0 2 0 C2.391875 1.2375 2.78375 2.475 3.1875 3.75 C4.70485631 7.73041377 6.1534491 9.90188133 10 12 C13.70940775 12.33465889 13.70940775 12.33465889 17 12 C16 13.5625 16 13.5625 14 15 C9.34064431 15 6.30437634 14.60749646 2.625 11.6875 C-0.63336422 8.35155568 -2 6.65981724 -2 2 C-1.34 2 -0.68 2 0 2 C0 1.34 0 0.68 0 0 Z " fill="#4F3727" transform="translate(208,315)"/>
<path d="M0 0 C2.31 0 4.62 0 7 0 C6.01 0.66 5.02 1.32 4 2 C4.99 2.66 5.98 3.32 7 4 C7.34057617 6.43017578 7.34057617 6.43017578 7.29296875 9.4453125 C7.28330078 10.52167969 7.27363281 11.59804688 7.26367188 12.70703125 C7.23853516 13.83496094 7.21339844 14.96289062 7.1875 16.125 C7.17396484 17.26066406 7.16042969 18.39632813 7.14648438 19.56640625 C7.11104319 22.37807387 7.06163517 25.18880417 7 28 C5.02 28.99 5.02 28.99 3 30 C3 29.34 3 28.68 3 28 C3.66 28 4.32 28 5 28 C4.67 20.41 4.34 12.82 4 5 C1.525 4.01 1.525 4.01 -1 3 C-0.67 2.01 -0.34 1.02 0 0 Z " fill="#39291D" transform="translate(12,298)"/>
<path d="M0 0 C0.25394531 0.53367187 0.50789062 1.06734375 0.76953125 1.6171875 C2.8464365 5.639131 5.2801841 9.45729578 7.63671875 13.3203125 C8.08660156 14.20460938 8.53648437 15.08890625 9 16 C8.67 16.66 8.34 17.32 8 18 C7.01 17.34 6.02 16.68 5 16 C4.01 16.99 3.02 17.98 2 19 C1.67 16.03 1.34 13.06 1 10 C-1.12364481 9.77390663 -1.12364481 9.77390663 -2.625 11.5 C-3.305625 12.2425 -3.305625 12.2425 -4 13 C-4.66 12.67 -5.32 12.34 -6 12 C-5.38125 11.13375 -4.7625 10.2675 -4.125 9.375 C-2.15345216 6.24371814 -1.01033009 3.53615531 0 0 Z " fill="#479139" transform="translate(179,8)"/>
<path d="M0 0 C0.226875 1.258125 0.45375 2.51625 0.6875 3.8125 C1.44878668 6.76378947 1.78729362 7.80018492 4.0625 9.9375 C8.00205993 11.36244721 11.83662662 11.73695462 16 12 C11.32915145 14.78309221 7.16075197 14.14405019 2 13 C-1.67019441 10.97764798 -2.70170741 9.91352107 -4 5.9375 C-4 3 -4 3 -2.625 1.125 C-1 0 -1 0 0 0 Z " fill="#503726" transform="translate(170,336)"/>
<path d="M0 0 C1.32 0 2.64 0 4 0 C4 4.29 4 8.58 4 13 C3.34 13 2.68 13 2 13 C1.814375 13.845625 1.62875 14.69125 1.4375 15.5625 C-0.4271036 20.02133471 -3.23350816 22.99746641 -7 26 C-7.66 26 -8.32 26 -9 26 C-9 25.34 -9 24.68 -9 24 C-8.071875 23.2575 -7.14375 22.515 -6.1875 21.75 C-2.95686707 19.09217433 -1.31420712 17.08864438 0 13 C0.23337164 8.65410143 0.17414623 4.34720586 0 0 Z " fill="#77634F" transform="translate(296,300)"/>
<path d="M0 0 C1 2 1 2 0.1875 4.5625 C-1 7 -1 7 -3 8 C-4.13102526 10.34038186 -4.13102526 10.34038186 -5.125 13.0625 C-5.65480469 14.44115234 -5.65480469 14.44115234 -6.1953125 15.84765625 C-6.46085938 16.55792969 -6.72640625 17.26820312 -7 18 C-7.66 17.01 -8.32 16.02 -9 15 C-11.16874252 15.50603992 -12.99967627 15.99983813 -15 17 C-13.67879172 14.06769807 -12.25361803 12.01335101 -9.9609375 9.765625 C-9.38085938 9.19199219 -8.80078125 8.61835938 -8.203125 8.02734375 C-7.59984375 7.44082031 -6.9965625 6.85429687 -6.375 6.25 C-5.76398438 5.64800781 -5.15296875 5.04601562 -4.5234375 4.42578125 C-3.02011376 2.94594695 -1.51065144 1.47235324 0 0 Z " fill="#59A24C" transform="translate(172,21)"/>
<path d="M0 0 C0.33 0 0.66 0 1 0 C1.07516846 0.66531738 1.15033691 1.33063477 1.2277832 2.01611328 C1.57768486 5.05388384 1.9449266 8.08931916 2.3125 11.125 C2.43044922 12.17171875 2.54839844 13.2184375 2.66992188 14.296875 C3.3498646 19.80615449 4.06564503 24.24913957 7 29 C6.01 28.67 5.02 28.34 4 28 C2.94952356 25.68895182 1.94992562 23.35416349 1 21 C0.34 20.34 -0.32 19.68 -1 19 C-1.13525391 17.02880859 -1.13525391 17.02880859 -0.9765625 14.6484375 C-0.925 13.79765625 -0.8734375 12.946875 -0.8203125 12.0703125 C-0.75585938 11.18085938 -0.69140625 10.29140625 -0.625 9.375 C-0.56828125 8.4778125 -0.5115625 7.580625 -0.453125 6.65625 C-0.31145247 4.43671376 -0.1600296 2.21827598 0 0 Z " fill="#A3B58C" transform="translate(180,206)"/>
<path d="M0 0 C1.32 0.66 2.64 1.32 4 2 C4 2.33 4 2.66 4 3 C5.45792884 3.05399736 6.91642712 3.09279177 8.375 3.125 C9.59316406 3.15980469 9.59316406 3.15980469 10.8359375 3.1953125 C13.21342243 3.21370051 13.21342243 3.21370051 15 1 C15.99 1.33 16.98 1.66 18 2 C18 3.32 18 4.64 18 6 C12.06 6 6.12 6 0 6 C-1 2 -1 2 0 0 Z " fill="#3B2C21" transform="translate(121,325)"/>
<path d="M0 0 C0.33 0 0.66 0 1 0 C2.19073048 6.32665233 2.27308087 10.35675711 -1 16 C-3 18 -3 18 -5 19 C-5.99 18.67 -6.98 18.34 -8 18 C-6.49760034 14.38058265 -5.17854707 11.2678206 -3 8 C-2.34 8.66 -1.68 9.32 -1 10 C-0.67 6.7 -0.34 3.4 0 0 Z " fill="#432F22" transform="translate(237,308)"/>
<path d="M0 0 C3.76524173 3.52253451 6.44761313 6.98043833 9.125 11.4375 C10.11886719 13.07525391 10.11886719 13.07525391 11.1328125 14.74609375 C12.88230907 17.79490262 14.58314899 20.78198872 16 24 C15.67 24.66 15.34 25.32 15 26 C14.5875 25.29875 14.175 24.5975 13.75 23.875 C12.52117456 21.85621534 11.22231191 19.87921422 9.875 17.9375 C8.29097911 15.45586727 7.43936342 13.85586221 7 11 C6.34 11 5.68 11 5 11 C4.54625 10.030625 4.0925 9.06125 3.625 8.0625 C2.34213779 4.92920418 2.34213779 4.92920418 0 4 C0 2.68 0 1.36 0 0 Z " fill="#46883A" transform="translate(208,49)"/>
<path d="M0 0 C3.30240742 -0.15360035 5.61046404 -0.16306157 8.6875 1.125 C9.8321875 1.558125 9.8321875 1.558125 11 2 C11.99 1.34 12.98 0.68 14 0 C13.74337755 1.44010481 13.46909179 2.8770687 13.1875 4.3125 C13.03667969 5.11300781 12.88585937 5.91351563 12.73046875 6.73828125 C11.92427764 9.23445587 10.97947998 10.32422106 9 12 C8.38727328 10.16181985 7.81459062 8.30892868 7.3125 6.4375 C6.15758132 3.68128584 6.15758132 3.68128584 2.875 2.6875 C1.92625 2.460625 0.9775 2.23375 0 2 C0 1.34 0 0.68 0 0 Z " fill="#473123" transform="translate(185,331)"/>
<path d="M0 0 C0.66 0 1.32 0 2 0 C0.49757498 5.14540183 -1.75811043 9.54807976 -4.375 14.1875 C-4.76171875 14.89841797 -5.1484375 15.60933594 -5.546875 16.34179688 C-7.60352393 20.00994757 -9.27780547 22.79897629 -13 25 C-11.23570801 20.02790438 -8.6060834 15.56561939 -6 11 C-5.34 11 -4.68 11 -4 11 C-3.67 9.02 -3.34 7.04 -3 5 C-2.34 5 -1.68 5 -1 5 C-0.67 3.35 -0.34 1.7 0 0 Z " fill="#4C873E" transform="translate(227,187)"/>
<path d="M0 0 C3.21741917 2.48499854 3.96565687 3.83865208 4.828125 7.890625 C4.98644899 9.34192827 5.1266339 10.79530812 5.25 12.25 C5.32734375 12.99507813 5.4046875 13.74015625 5.484375 14.5078125 C5.67198359 16.33699628 5.83813403 18.16835874 6 20 C5.34 20 4.68 20 4 20 C4 21.65 4 23.3 4 25 C3.34 24.67 2.68 24.34 2 24 C2.02320313 23.02160156 2.04640625 22.04320312 2.0703125 21.03515625 C2.17092231 13.72657247 1.98955915 7.08780449 0 0 Z " fill="#3B2B1E" transform="translate(37,301)"/>
<path d="M0 0 C14.22636654 -0.71796616 14.22636654 -0.71796616 20 3 C21.24609375 5.61328125 21.24609375 5.61328125 22 8 C21.39414062 7.6390625 20.78828125 7.278125 20.1640625 6.90625 C14.54770733 3.79565329 10.46241122 2.47413593 4.03125 2.921875 C2 3 2 3 0 2 C0 1.34 0 0.68 0 0 Z " fill="#74604C" transform="translate(263,281)"/>
<path d="M0 0 C2.73034935 2.73034935 3.78663731 5.97312216 5.1875 9.5 C5.61579102 10.53447266 5.61579102 10.53447266 6.05273438 11.58984375 C6.76545405 13.36904176 7.3895311 15.18317788 8 17 C7.67 17.66 7.34 18.32 7 19 C3.307998 16.53866533 3.20370321 15.1728378 2 11 C1.62875 9.989375 1.2575 8.97875 0.875 7.9375 C0.03155666 5.10594023 -0.17237553 2.93038397 0 0 Z " fill="#478C3A" transform="translate(224,75)"/>
<path d="M0 0 C0.99 0.33 1.98 0.66 3 1 C3 1.66 3 2.32 3 3 C3.763125 2.835 4.52625 2.67 5.3125 2.5 C8 2 8 2 11 2 C10.5504955 3.31554985 10.09010284 4.62738358 9.625 5.9375 C9.36976563 6.66839844 9.11453125 7.39929688 8.8515625 8.15234375 C8 10 8 10 6 11 C6 9.68 6 8.36 6 7 C5.01 6.67 4.02 6.34 3 6 C1.3125 2.9375 1.3125 2.9375 0 0 Z " fill="#8A7057" transform="translate(285,289)"/>
<path d="M0 0 C1.32 0 2.64 0 4 0 C3.67 1.65 3.34 3.3 3 5 C1.39679026 5.19551338 -0.20762986 5.38111983 -1.8125 5.5625 C-2.70582031 5.66691406 -3.59914063 5.77132813 -4.51953125 5.87890625 C-7 6 -7 6 -10 5 C-10 4.34 -10 3.68 -10 3 C-8.72125 2.87625 -7.4425 2.7525 -6.125 2.625 C-2.65209064 2.30957601 -2.65209064 2.30957601 0 0 Z " fill="#35231B" transform="translate(71,326)"/>
<path d="M0 0 C2 1 2 1 2.67578125 2.92578125 C2.88589844 3.71339844 3.09601563 4.50101562 3.3125 5.3125 C4.6375359 9.61545163 6.21550946 11.4429118 10 14 C10 14.66 10 15.32 10 16 C5.57165324 14.60823388 2.96898547 12.56278256 0 9 C0 6 0 3 0 0 Z " fill="#3C2A21" transform="translate(210,312)"/>
<path d="M0 0 C4.52615993 3.67832017 8.39424999 7.41086363 12 12 C11.34 12.66 10.68 13.32 10 14 C9.67 13.01 9.34 12.02 9 11 C8.071875 10.8453125 8.071875 10.8453125 7.125 10.6875 C5 10 5 10 3.375 7 C2.694375 5.515 2.694375 5.515 2 4 C1.34 3.67 0.68 3.34 0 3 C0 2.01 0 1.02 0 0 Z " fill="#458F3A" transform="translate(188,26)"/>
<path d="M0 0 C0.99 0.33 1.98 0.66 3 1 C3.625 3.3125 3.625 3.3125 4 6 C3.01 7.485 3.01 7.485 2 9 C0.68 8.67 -0.64 8.34 -2 8 C-1.125 1.125 -1.125 1.125 0 0 Z " fill="#D1D1C6" transform="translate(182,260)"/>
<path d="M0 0 C1.32 0 2.64 0 4 0 C4 2.97 4 5.94 4 9 C2.68 9 1.36 9 0 9 C0 6.03 0 3.06 0 0 Z " fill="#856D54" transform="translate(296,300)"/>
<path d="M0 0 C2.09350689 3.4019487 2.17942163 6.05272412 2 10 C1.01 10 0.02 10 -1 10 C-2.85776765 6.86501708 -3.20140476 4.62528568 -3 1 C-2.01 0.67 -1.02 0.34 0 0 Z " fill="#4FAC41" transform="translate(159,36)"/>
<path d="M0 0 C0.66 0 1.32 0 2 0 C3.625 2 3.625 2 5 4 C5.33 3.34 5.66 2.68 6 2 C7.875 0.8125 7.875 0.8125 10 0 C10.99 0.33 11.98 0.66 13 1 C10.36 2.98 7.72 4.96 5 7 C3.29115995 5.37660195 1.62553283 3.70680947 0 2 C0 1.34 0 0.68 0 0 Z " fill="#508C42" transform="translate(185,230)"/>
<path d="M0 0 C0 3 0 3 -1.96875 5.26171875 C-2.8040625 6.06222656 -3.639375 6.86273438 -4.5 7.6875 C-5.3353125 8.49574219 -6.170625 9.30398437 -7.03125 10.13671875 C-7.6809375 10.75160156 -8.330625 11.36648437 -9 12 C-9.33 10.68 -9.66 9.36 -10 8 C-9.360625 7.896875 -8.72125 7.79375 -8.0625 7.6875 C-7.381875 7.460625 -6.70125 7.23375 -6 7 C-5.67 6.01 -5.34 5.02 -5 4 C-3.37667033 2.61423077 -1.71275535 1.27358732 0 0 Z " fill="#4B893F" transform="translate(209,217)"/>
<path d="M0 0 C0.66 0 1.32 0 2 0 C1.52060632 4.71403788 1.03165952 8.66579301 -1 13 C-1.33 13 -1.66 13 -2 13 C-2.16682272 8.07872966 -2.24828052 4.49656104 0 0 Z " fill="#478C3A" transform="translate(235,160)"/>
<path d="M0 0 C0.66 0.33 1.32 0.66 2 1 C2.40729228 3.32156597 2.74438677 5.6568787 3 8 C2.01 7.34 1.02 6.68 0 6 C-0.66 7.98 -1.32 9.96 -2 12 C-2.66 12 -3.32 12 -4 12 C-3.33501617 7.61110675 -1.81242323 4.0188515 0 0 Z " fill="#4B973D" transform="translate(136,68)"/>
<path d="M0 0 C1.8125 0.125 1.8125 0.125 4 1 C5.0650015 2.96615661 6.06833174 4.96726926 7 7 C7.66 7.33 8.32 7.66 9 8 C8.67 9.32 8.34 10.64 8 12 C6.84906075 10.5665848 5.70441965 9.12811091 4.5625 7.6875 C3.92441406 6.88699219 3.28632813 6.08648437 2.62890625 5.26171875 C1 3 1 3 0 0 Z " fill="#488A3A" transform="translate(141,202)"/>
<path d="M0 0 C4.22097847 2.47436669 5.27813545 5.53880548 7 10 C7.65288627 11.34013497 8.31225595 12.67741528 9 14 C8.01 14.495 8.01 14.495 7 15 C5.82823482 12.87767021 4.66245215 10.75242209 3.5 8.625 C3.16613281 8.02171875 2.83226562 7.4184375 2.48828125 6.796875 C0 2.2265625 0 2.2265625 0 0 Z " fill="#448D35" transform="translate(132,185)"/>
<path d="M0 0 C2 3.75 2 3.75 2 6 C1.34 6 0.68 6 0 6 C-0.103125 6.598125 -0.20625 7.19625 -0.3125 7.8125 C-1.08876455 10.28243264 -2.07088921 11.32251235 -4 13 C-4.66 12.67 -5.32 12.34 -6 12 C-5.38125 11.13375 -4.7625 10.2675 -4.125 9.375 C-2.15345216 6.24371814 -1.01033009 3.53615531 0 0 Z " fill="#58934A" transform="translate(179,8)"/>
<path d="M0 0 C0.66 0 1.32 0 2 0 C3.71084699 5.51272919 4.4606443 8.53190155 2 14 C1.67 14 1.34 14 1 14 C0.83287252 11.85420251 0.66631 9.70836101 0.5 7.5625 C0.4071875 6.36753906 0.314375 5.17257812 0.21875 3.94140625 C0 1 0 1 0 0 Z " fill="#34231A" transform="translate(154,312)"/>
<path d="M0 0 C1.65 0 3.3 0 5 0 C5 1.32 5 2.64 5 4 C4.01 4.66 3.02 5.32 2 6 C2 5.34 2 4.68 2 4 C1.01 3.67 0.02 3.34 -1 3 C-0.67 2.01 -0.34 1.02 0 0 Z " fill="#BABEA6" transform="translate(183,235)"/>
<path d="M0 0 C6.57142857 5 6.57142857 5 8 10 C7.01 9.67 6.02 9.34 5 9 C5 8.01 5 7.02 5 6 C3.35 5.67 1.7 5.34 0 5 C0 3.35 0 1.7 0 0 Z " fill="#478D39" transform="translate(200,39)"/>
<path d="M0 0 C0.33 0 0.66 0 1 0 C1.33 4.95 1.66 9.9 2 15 C1.01 15 0.02 15 -1 15 C-0.67 10.05 -0.34 5.1 0 0 Z " fill="#8DB979" transform="translate(180,206)"/>
<path d="M0 0 C0.33 0.66 0.66 1.32 1 2 C0.401875 2.886875 -0.19625 3.77375 -0.8125 4.6875 C-2.61840247 7.42215231 -4.33895911 10.17623048 -6 13 C-6.66 12.67 -7.32 12.34 -8 12 C-6.85573734 10.186508 -5.70954608 8.37423275 -4.5625 6.5625 C-3.60537109 5.04849609 -3.60537109 5.04849609 -2.62890625 3.50390625 C-1 1 -1 1 0 0 Z " fill="#539048" transform="translate(149,47)"/>
<path d="M0 0 C1.8125 0.1875 1.8125 0.1875 4 1 C5.8125 3.25 5.8125 3.25 7 6 C6.6875 8.8125 6.6875 8.8125 6 11 C5.67 11 5.34 11 5 11 C4.690625 9.906875 4.38125 8.81375 4.0625 7.6875 C3.41662103 5.44592006 2.7376883 3.2130649 2 1 C1.34 0.67 0.68 0.34 0 0 Z " fill="#382419" transform="translate(149,297)"/>
<path d="M0 0 C0.33 0.99 0.66 1.98 1 3 C0.01 4.485 0.01 4.485 -1 6 C-1.39013716 7.9896995 -1.73202649 9.99019869 -2 12 C-2.99 10.68 -3.98 9.36 -5 8 C-3.38731308 5.28775382 -1.75098126 2.62647188 0 0 Z " fill="#A9AC99" transform="translate(189,236)"/>
<path d="M0 0 C0.99 0.33 1.98 0.66 3 1 C2.01 2.485 2.01 2.485 1 4 C1 5.010625 1 6.02125 1 7.0625 C1 8.031875 1 9.00125 1 10 C0.34 10.66 -0.32 11.32 -1 12 C-2.45606519 7.47907032 -1.27032841 4.48351204 0 0 Z " fill="#478F36" transform="translate(126,95)"/>
<path d="M0 0 C1.1577506 3.47325181 1.06866652 6.36067448 1 10 C0.34 10 -0.32 10 -1 10 C-2.1875 7.8125 -2.1875 7.8125 -3 5 C-1.625 2.1875 -1.625 2.1875 0 0 Z " fill="#352016" transform="translate(81,307)"/>
<path d="M0 0 C1.15941038 3.47823115 0.70820884 5.45895578 0 9 C-1.32 8.34 -2.64 7.68 -4 7 C-3.34 6.34 -2.68 5.68 -2 5 C-1.29289322 3.35008418 -0.62056011 1.68437744 0 0 Z " fill="#5A954B" transform="translate(176,230)"/>
<path d="M0 0 C2 2 2 2 2 6 C1.01 6 0.02 6 -1 6 C-1.33 7.32 -1.66 8.64 -2 10 C-2.17942163 6.05272412 -2.09350689 3.4019487 0 0 Z " fill="#49A13E" transform="translate(183,23)"/>
<path d="M0 0 C3.3125 -0.25 3.3125 -0.25 7 0 C8.9375 2 8.9375 2 10 4 C9.01 4 8.02 4 7 4 C6.34 3.34 5.68 2.68 5 2 C2.42938689 1.35232207 2.42938689 1.35232207 0 1 C0 0.67 0 0.34 0 0 Z " fill="#362519" transform="translate(189,327)"/>
<path d="M0 0 C2.49361571 1.20381448 4.68143083 2.45428722 7 4 C7 4.66 7 5.32 7 6 C2.32307692 4.52307692 2.32307692 4.52307692 0.6875 1.875 C0.460625 1.25625 0.23375 0.6375 0 0 Z " fill="#362619" transform="translate(213,322)"/>
<path d="M0 0 C3 3 3 3 3.1875 6.1875 C3.0946875 7.5796875 3.0946875 7.5796875 3 9 C2.34 9 1.68 9 1 9 C0.67 6.03 0.34 3.06 0 0 Z " fill="#9F9E8F" transform="translate(176,244)"/>
<path d="M0 0 C0.99 0.33 1.98 0.66 3 1 C3.125 3.875 3.125 3.875 3 7 C2.34 7.66 1.68 8.32 1 9 C0.67 6.03 0.34 3.06 0 0 Z " fill="#A6A189" transform="translate(179,225)"/>
<path d="M0 0 C0.33 0.99 0.66 1.98 1 3 C-1.0072908 6.0109362 -1.83884224 6.63016497 -5 8 C-3.62845496 5.04590299 -2.01136276 2.55991624 0 0 Z " fill="#559846" transform="translate(155,39)"/>
<path d="M0 0 C0.33 0 0.66 0 1 0 C1 1.98 1 3.96 1 6 C0.67 6 0.34 6 0 6 C0 4.02 0 2.04 0 0 Z " fill="#1D1818" transform="translate(173,336)"/>
<path d="M0 0 C0.66 0 1.32 0 2 0 C2 0.99 2 1.98 2 3 C1.34 3 0.68 3 0 3 C0 2.01 0 1.02 0 0 Z " fill="#4C4141" transform="translate(31,327)"/>
<path d="M0 0 C0.99 0.495 0.99 0.495 2 1 C1.01 1.495 1.01 1.495 0 2 C0 1.34 0 0.68 0 0 Z " fill="#3B310A" transform="translate(165,334)"/>
<path d="" fill="#000000" transform="translate(0,0)"/>
<path d="M0 0 C3 1 3 1 3 1 Z " fill="#21210C" transform="translate(180,323)"/>
<path d="M0 0 C0.99 0.495 0.99 0.495 2 1 C1.01 1.495 1.01 1.495 0 2 C0 1.34 0 0.68 0 0 Z " fill="#222222" transform="translate(195,304)"/>
<path d="M0 0 C3 1 3 1 3 1 Z " fill="#424242" transform="translate(120,296)"/>
<path d="M0 0 C3 1 3 1 3 1 Z " fill="#5E5246" transform="translate(326,284)"/>
<path d="M0 0 C2 1 2 1 2 1 Z " fill="#39392D" transform="translate(175,334)"/>
<path d="M0 0 C2 1 2 1 2 1 Z " fill="#404040" transform="translate(178,333)"/>
<path d="" fill="#3C3018" transform="translate(0,0)"/>
<path d="" fill="#444444" transform="translate(0,0)"/>
<path d="M0 0 C2 1 2 1 2 1 Z " fill="#191919" transform="translate(160,325)"/>
<path d="" fill="#201010" transform="translate(0,0)"/>
<path d="" fill="#241212" transform="translate(0,0)"/>
<path d="M0 0 C2 1 2 1 2 1 Z " fill="#361B1B" transform="translate(180,315)"/>
<path d="M0 0 C2 1 2 1 2 1 Z " fill="#151515" transform="translate(177,314)"/>
<path d="" fill="#202000" transform="translate(0,0)"/>
<path d="" fill="#806060" transform="translate(0,0)"/>
<path d="" fill="#2A2A2A" transform="translate(0,0)"/>
<path d="" fill="#641212" transform="translate(0,0)"/>
<path d="" fill="#443232" transform="translate(0,0)"/>
<path d="" fill="#000000" transform="translate(0,0)"/>
<path d="" fill="#400000" transform="translate(0,0)"/>
<path d="" fill="#191919" transform="translate(0,0)"/>
<path d="" fill="#372D2D" transform="translate(0,0)"/>
<path d="" fill="#241212" transform="translate(0,0)"/>
<path d="" fill="#471C0E" transform="translate(0,0)"/>
<path d="M0 0 C2 1 2 1 2 1 Z " fill="#201010" transform="translate(137,303)"/>
<path d="" fill="#191919" transform="translate(0,0)"/>
<path d="M0 0 C2 1 2 1 2 1 Z " fill="#121212" transform="translate(56,303)"/>
<path d="" fill="#241212" transform="translate(0,0)"/>
<path d="" fill="#1C1C0E" transform="translate(0,0)"/>
<path d="M0 0 C2 1 2 1 2 1 Z " fill="#322222" transform="translate(53,302)"/>
<path d="M0 0 C2 1 2 1 2 1 Z " fill="#241818" transform="translate(178,300)"/>
<path d="" fill="#382A2A" transform="translate(0,0)"/>
<path d="M0 0 C2 1 2 1 2 1 Z " fill="#6A6A4A" transform="translate(330,298)"/>
<path d="M0 0 C2 1 2 1 2 1 Z " fill="#000000" transform="translate(126,295)"/>
<path d="" fill="#000000" transform="translate(0,0)"/>
<path d="" fill="#000000" transform="translate(0,0)"/>
<path d="" fill="#550000" transform="translate(0,0)"/>
<path d="" fill="#000000" transform="translate(0,0)"/>
<path d="" fill="#402020" transform="translate(0,0)"/>
<path d="" fill="#000000" transform="translate(0,0)"/>
<path d="" fill="#000000" transform="translate(0,0)"/>
<path d="" fill="#000000" transform="translate(0,0)"/>
<path d="" fill="#000000" transform="translate(0,0)"/>
<path d="" fill="#550000" transform="translate(0,0)"/>
<path d="" fill="#808080" transform="translate(0,0)"/>
<path d="" fill="#333333" transform="translate(0,0)"/>
<path d="" fill="#550000" transform="translate(0,0)"/>
<path d="" fill="#404000" transform="translate(0,0)"/>
<path d="" fill="#808080" transform="translate(0,0)"/>
<path d="" fill="#808080" transform="translate(0,0)"/>
<path d="" fill="#000000" transform="translate(0,0)"/>
<path d="" fill="#000000" transform="translate(0,0)"/>
<path d="" fill="#333333" transform="translate(0,0)"/>
<path d="" fill="#000000" transform="translate(0,0)"/>
<path d="" fill="#333333" transform="translate(0,0)"/>
<path d="" fill="#333333" transform="translate(0,0)"/>
<path d="" fill="#2A2A2A" transform="translate(0,0)"/>
<path d="" fill="#333333" transform="translate(0,0)"/>
<path d="" fill="#808080" transform="translate(0,0)"/>
<path d="" fill="#555555" transform="translate(0,0)"/>
<path d="" fill="#333333" transform="translate(0,0)"/>
<path d="" fill="#000000" transform="translate(0,0)"/>
<path d="" fill="#404040" transform="translate(0,0)"/>
<path d="" fill="#404040" transform="translate(0,0)"/>
<path d="" fill="#2A2A2A" transform="translate(0,0)"/>
<path d="" fill="#492424" transform="translate(0,0)"/>
<path d="" fill="#555500" transform="translate(0,0)"/>
<path d="" fill="#333333" transform="translate(0,0)"/>
<path d="" fill="#555500" transform="translate(0,0)"/>
<path d="" fill="#404040" transform="translate(0,0)"/>
<path d="" fill="#404040" transform="translate(0,0)"/>
<path d="" fill="#000000" transform="translate(0,0)"/>
<path d="" fill="#333333" transform="translate(0,0)"/>
<path d="" fill="#202020" transform="translate(0,0)"/>
<path d="" fill="#404040" transform="translate(0,0)"/>
<path d="" fill="#800000" transform="translate(0,0)"/>
<path d="" fill="#000000" transform="translate(0,0)"/>
<path d="" fill="#39391C" transform="translate(0,0)"/>
<path d="" fill="#2A2A2A" transform="translate(0,0)"/>
<path d="" fill="#492424" transform="translate(0,0)"/>
<path d="" fill="#402020" transform="translate(0,0)"/>
<path d="" fill="#39391C" transform="translate(0,0)"/>
<path d="" fill="#2A2A2A" transform="translate(0,0)"/>
<path d="" fill="#404040" transform="translate(0,0)"/>
<path d="" fill="#000000" transform="translate(0,0)"/>
<path d="" fill="#555555" transform="translate(0,0)"/>
<path d="" fill="#402020" transform="translate(0,0)"/>
<path d="" fill="#39391C" transform="translate(0,0)"/>
<path d="" fill="#000000" transform="translate(0,0)"/>
<path d="" fill="#717155" transform="translate(0,0)"/>
<path d="" fill="#000000" transform="translate(0,0)"/>
<path d="" fill="#000000" transform="translate(0,0)"/>
<path d="" fill="#000000" transform="translate(0,0)"/>
<path d="" fill="#000000" transform="translate(0,0)"/>
<path d="" fill="#333333" transform="translate(0,0)"/>
<path d="" fill="#000000" transform="translate(0,0)"/>
<path d="" fill="#000000" transform="translate(0,0)"/>
<path d="" fill="#242424" transform="translate(0,0)"/>
<path d="" fill="#000000" transform="translate(0,0)"/>
<path d="" fill="#402020" transform="translate(0,0)"/>
<path d="" fill="#000000" transform="translate(0,0)"/>
<path d="" fill="#808080" transform="translate(0,0)"/>
</svg>
