<?xml version="1.0" encoding="UTF-8"?>
<svg version="1.1" xmlns="http://www.w3.org/2000/svg" width="250" height="150">
<path d="M0 0 C2.22138603 0.00096919 4.43926898 -0.04070056 6.66015625 -0.08496094 C26.53790012 -0.24977185 42.03185919 8.31582915 55.96435547 21.97705078 C58.21244567 24.22514098 60.40758121 26.52388302 62.61328125 28.81347656 C72.1010902 38.42510684 82.0283814 43.31567131 95.48828125 43.50097656 C106.49974924 42.77120328 114.52447499 36.98855006 121.9921875 29.23535156 C123.56098229 27.56022879 123.56098229 27.56022879 124.48828125 25.50097656 C125.14828125 25.50097656 125.80828125 25.50097656 126.48828125 25.50097656 C127.52258224 36.05084668 122.73269158 45.80159783 116.4921875 54.09082031 C103.98063031 69.13883355 90.52735058 75.13008846 71.37890625 77.15332031 C51.61529362 78.91934594 34.30362507 74.6164005 18.48828125 62.50097656 C15.99923385 60.26228525 13.68215256 57.95861817 11.3984375 55.51269531 C9.66352487 53.68553783 7.8983383 52.12413075 5.92578125 50.56347656 C5.12140625 49.88285156 4.31703125 49.20222656 3.48828125 48.50097656 C3.48828125 47.84097656 3.48828125 47.18097656 3.48828125 46.50097656 C2.65296875 46.12972656 2.65296875 46.12972656 1.80078125 45.75097656 C-1.86260105 43.77076991 -4.87837802 41.02618595 -8.07421875 38.37597656 C-15.14228947 32.93899909 -23.86990589 32.70686403 -32.51171875 33.50097656 C-42.28103877 35.5431508 -50.60190254 41.3859326 -56.640625 49.28613281 C-57.25808594 50.01703125 -57.87554687 50.74792969 -58.51171875 51.50097656 C-59.50171875 51.50097656 -60.49171875 51.50097656 -61.51171875 51.50097656 C-59.4604371 35.83342875 -51.05857972 21.4171653 -38.9921875 11.28222656 C-34.47718413 8.03995643 -29.65988071 5.57615719 -24.51171875 3.50097656 C-23.8460791 3.23172363 -23.18043945 2.9624707 -22.49462891 2.68505859 C-15.11244741 0.06758399 -7.73616923 -0.0237098 0 0 Z " fill="#17B8B7" transform="translate(123.51171875,-0.5009765625)"/>
<path d="M0 0 C5.00723864 4.66161704 9.76652333 9.57133762 14.47875977 14.52880859 C15.95241903 16.10134239 15.95241903 16.10134239 18 17 C18 17.66 18 18.32 18 19 C18.86431641 19.40412109 18.86431641 19.40412109 19.74609375 19.81640625 C22.03458067 21.01815935 23.98126148 22.40866498 26.0625 23.9375 C33.3383929 28.8239371 42.23989937 31.30438047 51 30 C62.0070347 27.27660997 70.63959574 21.35320443 77.625 12.50390625 C78.07875 12.00761719 78.5325 11.51132813 79 11 C79.66 11 80.32 11 81 11 C80.75388712 24.78232107 73.33771299 37.30439557 64 47 C63.36320313 47.66515625 62.72640625 48.3303125 62.0703125 49.015625 C52.96390905 57.70638348 41.21862518 62.26870909 28.7890625 62.44140625 C27.46036636 62.46206398 27.46036636 62.46206398 26.10482788 62.48313904 C24.23059258 62.50635228 22.3562758 62.52364751 20.48193359 62.53540039 C17.66732457 62.56209853 14.85661793 62.63699972 12.04296875 62.71289062 C-6.73673951 62.98565403 -20.27911727 56.70368385 -34 44 C-37.24900255 40.81654898 -40.41692397 37.55464716 -43.59033203 34.29614258 C-50.42775969 27.37358312 -58.02269038 21.08011242 -68 20 C-68.85722656 19.87238281 -69.71445313 19.74476562 -70.59765625 19.61328125 C-81.15766471 18.74630882 -91.2592437 23.97808514 -99.296875 30.59375 C-101.21025013 32.29698566 -103.09169752 33.97674745 -104.875 35.8125 C-105.57625 36.534375 -106.2775 37.25625 -107 38 C-107.33 37.67 -107.66 37.34 -108 37 C-107.60388677 31.05053465 -105.64778709 26.25994779 -103.1875 20.875 C-102.84396484 20.08996094 -102.50042969 19.30492187 -102.14648438 18.49609375 C-100.2194154 14.20809412 -98.29209881 10.43703398 -95 7 C-94.34 7 -93.68 7 -93 7 C-92.74734375 6.41992188 -92.4946875 5.83984375 -92.234375 5.2421875 C-86.69159006 -4.82603578 -74.68222703 -8.95485506 -64.32421875 -12.125 C-42.9854442 -17.74178672 -17.36131322 -13.91130867 0 0 Z " fill="#18B5B7" transform="translate(108,88)"/>
<path d="M0 0 C3.1875 0.875 3.1875 0.875 6 2 C6 2.99 6 3.98 6 5 C5.34 5 4.68 5 4 5 C4 5.66 4 6.32 4 7 C2.35 7 0.7 7 -1 7 C-1.33 7.66 -1.66 8.32 -2 9 C-2.66 9 -3.32 9 -4 9 C-4 8.34 -4 7.68 -4 7 C-4.66 7 -5.32 7 -6 7 C-6.12375 7.61875 -6.2475 8.2375 -6.375 8.875 C-7 11 -7 11 -9 13 C-9.99 13 -10.98 13 -12 13 C-11.67 13.99 -11.34 14.98 -11 16 C-12.98 16.99 -12.98 16.99 -15 18 C-14.34 18.66 -13.68 19.32 -13 20 C-12.690625 21.010625 -12.38125 22.02125 -12.0625 23.0625 C-11.711875 24.031875 -11.36125 25.00125 -11 26 C-10.01 26.33 -9.02 26.66 -8 27 C-8 26.34 -8 25.68 -8 25 C-6.68 25 -5.36 25 -4 25 C-4 24.34 -4 23.68 -4 23 C2.27 23 8.54 23 15 23 C15 23.99 15 24.98 15 26 C14.11699219 25.95359375 13.23398438 25.9071875 12.32421875 25.859375 C-0.77493909 25.46541537 -8.59951618 28.2234489 -18.58984375 36.68359375 C-21.08290962 38.96222731 -21.08290962 38.96222731 -23.12890625 41.78515625 C-23.74636719 42.51605469 -24.36382812 43.24695312 -25 44 C-25.99 44 -26.98 44 -28 44 C-25.77371691 26.99580326 -16.33239194 12.49235579 -3 2 C-2.01 1.34 -1.02 0.68 0 0 Z " fill="#21A4B7" transform="translate(90,7)"/>
<path d="M0 0 C2.19896145 0.03458489 4.39393566 0.02050447 6.59301758 0.0012207 C15.31341798 0.01257778 22.88305311 1.18341511 31.0012207 4.59692383 C30.0112207 4.92692383 29.0212207 5.25692383 28.0012207 5.59692383 C27.6712207 6.58692383 27.3412207 7.57692383 27.0012207 8.59692383 C26.0112207 8.59692383 25.0212207 8.59692383 24.0012207 8.59692383 C24.3312207 7.27692383 24.6612207 5.95692383 25.0012207 4.59692383 C22.3612207 4.59692383 19.7212207 4.59692383 17.0012207 4.59692383 C17.0012207 5.25692383 17.0012207 5.91692383 17.0012207 6.59692383 C13.3712207 6.59692383 9.7412207 6.59692383 6.0012207 6.59692383 C6.0012207 5.27692383 6.0012207 3.95692383 6.0012207 2.59692383 C-2.4137793 3.09192383 -2.4137793 3.09192383 -10.9987793 3.59692383 C-11.3287793 5.24692383 -11.6587793 6.89692383 -11.9987793 8.59692383 C-16.4537793 10.08192383 -16.4537793 10.08192383 -20.9987793 11.59692383 C-21.3287793 10.60692383 -21.6587793 9.61692383 -21.9987793 8.59692383 C-22.9475293 8.47317383 -23.8962793 8.34942383 -24.8737793 8.22192383 C-27.9987793 7.59692383 -27.9987793 7.59692383 -29.9987793 5.59692383 C-19.78254587 1.49831819 -10.9667557 -0.19033111 0 0 Z " fill="#1BA6B3" transform="translate(123.998779296875,-0.596923828125)"/>
<path d="M0 0 C-2 2 -2 2 -5 2.875 C-8.08807106 3.66109539 -8.08807106 3.66109539 -9.0625 5.9375 C-9.371875 6.618125 -9.68125 7.29875 -10 8 C-11.6362525 9.04902599 -13.30891234 10.04187668 -15 11 C-15.83660156 11.50660156 -16.67320313 12.01320313 -17.53515625 12.53515625 C-18.36917969 13.03917969 -19.20320313 13.54320313 -20.0625 14.0625 C-20.89910156 14.56910156 -21.73570313 15.07570313 -22.59765625 15.59765625 C-25 17 -25 17 -27.19921875 17.98828125 C-30.02631534 19.57660667 -30.74527438 22.11413107 -32 25 C-34.475 24.01 -34.475 24.01 -37 23 C-35.7260411 20.96166576 -34.38938077 18.96147874 -33 17 C-32.34 17 -31.68 17 -31 17 C-30.62101562 16.12988281 -30.62101562 16.12988281 -30.234375 15.2421875 C-25.82538704 7.23345621 -17.36254779 3.40357003 -9.33203125 -0.06640625 C-5.74134925 -1.07247073 -3.57965268 -0.90713505 0 0 Z " fill="#209FB1" transform="translate(46,78)"/>
<path d="M0 0 C0.33 0.99 0.66 1.98 1 3 C2.32 3 3.64 3 5 3 C5 4.98 5 6.96 5 9 C5.66 9 6.32 9 7 9 C7 8.34 7 7.68 7 7 C7.99 7 8.98 7 10 7 C9.67 6.01 9.34 5.02 9 4 C13.75 1 13.75 1 16 1 C16 1.66 16 2.32 16 3 C16.99 3.33 17.98 3.66 19 4 C16.3401626 5.77322493 13.66755274 7.15598856 10.80688477 8.56445312 C3.36730495 12.28743052 -2.03166503 16.14274534 -7 23 C-7.66 22.67 -8.32 22.34 -9 22 C-8.3677547 14.72917903 -6.48300119 7.09349837 -1 2 C-0.67 1.34 -0.34 0.68 0 0 Z " fill="#269CAE" transform="translate(9,103)"/>
<path d="M0 0 C14.67446651 0.38115497 28.60440948 2.39195103 41 11 C41.66 11.99 42.32 12.98 43 14 C41.02 14 39.04 14 37 14 C37 14.66 37 15.32 37 16 C36.01 16 35.02 16 34 16 C33.505 17.485 33.505 17.485 33 19 C32.34 18.67 31.68 18.34 31 18 C31 17.34 31 16.68 31 16 C31.66 16 32.32 16 33 16 C33 14.02 33 12.04 33 10 C31.02 10 29.04 10 27 10 C27 8.68 27 7.36 27 6 C24.56282742 6.27034634 24.56282742 6.27034634 22 7 C21.01 8.485 21.01 8.485 20 10 C19.01 10 18.02 10 17 10 C17 9.34 17 8.68 17 8 C17.66 8 18.32 8 19 8 C19 7.34 19 6.68 19 6 C18.34 6 17.68 6 17 6 C17 5.34 17 4.68 17 4 C16.19175781 4.03480469 15.38351563 4.06960937 14.55078125 4.10546875 C13.48214844 4.13253906 12.41351563 4.15960938 11.3125 4.1875 C9.72888672 4.23970703 9.72888672 4.23970703 8.11328125 4.29296875 C4.63392401 3.96555119 2.7919812 3.05643142 0 1 C0 0.67 0 0.34 0 0 Z " fill="#1CA6AA" transform="translate(63,74)"/>
<path d="M0 0 C0.66 0 1.32 0 2 0 C2.3152595 5.98993047 1.68219822 9.63560356 -1 15 C-1.66 15 -2.32 15 -3 15 C-3.33 16.32 -3.66 17.64 -4 19 C-4.66 19 -5.32 19 -6 19 C-6 19.66 -6 20.32 -6 21 C-7.30010683 20.34994658 -8.59244386 19.68402994 -9.875 19 C-11.91573548 18.03965389 -13.80118692 17.47117423 -16 17 C-16 17.66 -16 18.32 -16 19 C-17.98 19 -19.96 19 -22 19 C-22 18.34 -22 17.68 -22 17 C-21.23816406 16.67128906 -20.47632813 16.34257813 -19.69140625 16.00390625 C-11.98723776 12.45479492 -3.95342861 7.90685723 0 0 Z " fill="#12C8B2" transform="translate(248,25)"/>
<path d="M0 0 C0.66 0.33 1.32 0.66 2 1 C1.67 2.32 1.34 3.64 1 5 C0.34 5 -0.32 5 -1 5 C-1 6.98 -1 8.96 -1 11 C-2.98 11 -4.96 11 -7 11 C-7 11.66 -7 12.32 -7 13 C-6.34 13 -5.68 13 -5 13 C-5 13.66 -5 14.32 -5 15 C-5.66 15 -6.32 15 -7 15 C-7 16.98 -7 18.96 -7 21 C-7.66 21 -8.32 21 -9 21 C-9 21.66 -9 22.32 -9 23 C-10.98 23 -12.96 23 -15 23 C-15 22.34 -15 21.68 -15 21 C-14.34 21 -13.68 21 -13 21 C-13 19.68 -13 18.36 -13 17 C-12.34 17 -11.68 17 -11 17 C-11 17.66 -11 18.32 -11 19 C-10.34 19 -9.68 19 -9 19 C-9 17.68 -9 16.36 -9 15 C-12.94727588 14.82057837 -15.5980513 14.90649311 -19 17 C-19 15.68 -19 14.36 -19 13 C-16.62109375 11.2890625 -16.62109375 11.2890625 -13.4375 9.625 C-8.34909343 6.8369145 -4.23521344 3.94644889 0 0 Z " fill="#14C2B2" transform="translate(185,103)"/>
<path d="M0 0 C0.66 0 1.32 0 2 0 C1.76954935 12.90523642 -4.84928533 24.44851514 -12.88671875 34.15625 C-15 36 -15 36 -19 36 C-19 34.35 -19 32.7 -19 31 C-18.34 31 -17.68 31 -17 31 C-17 29.68 -17 28.36 -17 27 C-15.02 27 -13.04 27 -11 27 C-11 26.34 -11 25.68 -11 25 C-10.34 25 -9.68 25 -9 25 C-9.33 24.01 -9.66 23.02 -10 22 C-9.67 21.01 -9.34 20.02 -9 19 C-8.34 19 -7.68 19 -7 19 C-7 18.34 -7 17.68 -7 17 C-7.66 17 -8.32 17 -9 17 C-9 16.34 -9 15.68 -9 15 C-7.02 15 -5.04 15 -3 15 C-3 13.02 -3 11.04 -3 9 C-2.34 9 -1.68 9 -1 9 C-1.2475 8.1028125 -1.2475 8.1028125 -1.5 7.1875 C-2 5 -2 5 -2 2 C-1.34 1.34 -0.68 0.68 0 0 Z " fill="#1BBDAC" transform="translate(187,99)"/>
<path d="M0 0 C0.99 0.33 1.98 0.66 3 1 C2.67 2.65 2.34 4.3 2 6 C-10.81807274 10.62190123 -26.57632355 12.98038997 -40 10 C-40 9.34 -40 8.68 -40 8 C-33.73 8 -27.46 8 -21 8 C-21 7.34 -21 6.68 -21 6 C-17.535 5.505 -17.535 5.505 -14 5 C-13.67 4.01 -13.34 3.02 -13 2 C-12.34 2 -11.68 2 -11 2 C-11 2.66 -11 3.32 -11 4 C-10.34 4 -9.68 4 -9 4 C-9 4.66 -9 5.32 -9 6 C-7.02 6 -5.04 6 -3 6 C-3 4.68 -3 3.36 -3 2 C-2.01 1.34 -1.02 0.68 0 0 Z " fill="#1EBCAA" transform="translate(215,66)"/>
<path d="M0 0 C-0.99 0.33 -1.98 0.66 -3 1 C-3.33 1.99 -3.66 2.98 -4 4 C-4.99 4 -5.98 4 -7 4 C-6.67 2.68 -6.34 1.36 -6 0 C-8.64 0 -11.28 0 -14 0 C-14 0.66 -14 1.32 -14 2 C-17.63 2 -21.26 2 -25 2 C-25 0.68 -25 -0.64 -25 -2 C-30.61 -2 -36.22 -2 -42 -2 C-42 -2.33 -42 -2.66 -42 -3 C-12.76000574 -5.32260947 -12.76000574 -5.32260947 0 0 Z " fill="#21A6AE" transform="translate(155,4)"/>
<path d="M0 0 C0 0.99 0 1.98 0 3 C-0.66 3 -1.32 3 -2 3 C-1.34 3.66 -0.68 4.32 0 5 C0.66 5 1.32 5 2 5 C2 5.66 2 6.32 2 7 C2.66 7 3.32 7 4 7 C4 8.32 4 9.64 4 11 C3.34 11 2.68 11 2 11 C2 11.66 2 12.32 2 13 C2.66 13 3.32 13 4 13 C3.67 15.64 3.34 18.28 3 21 C-1.66666667 18.66666667 -6.33333333 16.33333333 -11 14 C-11 13.67 -11 13.34 -11 13 C-8.69 13 -6.38 13 -4 13 C-4 9.04 -4 5.08 -4 1 C-2 0 -2 0 0 0 Z M1 13 C2 15 2 15 2 15 Z " fill="#20AAB9" transform="translate(52,93)"/>
<path d="M0 0 C0.66 0 1.32 0 2 0 C2 1.98 2 3.96 2 6 C3.32 6 4.64 6 6 6 C5.34 7.65 4.68 9.3 4 11 C2.68 10.67 1.36 10.34 0 10 C0 11.32 0 12.64 0 14 C1.32 14 2.64 14 4 14 C4 14.66 4 15.32 4 16 C6.97 16 9.94 16 13 16 C12.34 16.33 11.68 16.66 11 17 C11 18.65 11 20.3 11 22 C4.53248388 18.75127084 -0.742695 14.97080336 -6 10 C-5.1875 7.0625 -5.1875 7.0625 -4 4 C-3.01 3.67 -2.02 3.34 -1 3 C-0.67 2.01 -0.34 1.02 0 0 Z " fill="#1AB0AD" transform="translate(144,48)"/>
<path d="M0 0 C3.3 0 6.6 0 10 0 C10 0.66 10 1.32 10 2 C10.66 2 11.32 2 12 2 C12 2.66 12 3.32 12 4 C11.34 4 10.68 4 10 4 C9.67 6.31 9.34 8.62 9 11 C9.99 11.33 10.98 11.66 12 12 C11.01 12.495 11.01 12.495 10 13 C8.55962331 12.06692579 7.12281015 11.12834923 5.6875 10.1875 C4.88699219 9.66542969 4.08648437 9.14335937 3.26171875 8.60546875 C1.2762598 7.19610151 -0.3491852 5.77903343 -2 4 C-1.34 4 -0.68 4 0 4 C0 2.68 0 1.36 0 0 Z " fill="#1BAAAB" transform="translate(82,132)"/>
<path d="M0 0 C2 1.375 2 1.375 4 3 C4 3.66 4 4.32 4 5 C3.34 5 2.68 5 2 5 C2 5.66 2 6.32 2 7 C1.34 7 0.68 7 0 7 C0 7.99 0 8.98 0 10 C-1.26607607 10.53229326 -2.53810412 11.05044544 -3.8125 11.5625 C-4.52019531 11.85253906 -5.22789062 12.14257812 -5.95703125 12.44140625 C-8 13 -8 13 -11 12 C-12.66362417 11.65179959 -14.32995171 11.31595508 -16 11 C-16 10.34 -16 9.68 -16 9 C-14.02 8.34 -12.04 7.68 -10 7 C-10 5.68 -10 4.36 -10 3 C-9.34 3 -8.68 3 -8 3 C-8.33 4.65 -8.66 6.3 -9 8 C-8.01 8.33 -7.02 8.66 -6 9 C-6 8.34 -6 7.68 -6 7 C-4.68 7 -3.36 7 -2 7 C-1.855625 6.21625 -1.71125 5.4325 -1.5625 4.625 C-1 2 -1 2 0 0 Z " fill="#10C0AB" transform="translate(154,137)"/>
<path d="M0 0 C6.27 0 12.54 0 19 0 C19 0.99 19 1.98 19 3 C18.11699219 2.95359375 17.23398438 2.9071875 16.32421875 2.859375 C6.24287788 2.55617678 -1.10310667 4.44905457 -10 9 C-10 7.35 -10 5.7 -10 4 C-8.02 4 -6.04 4 -4 4 C-4 3.34 -4 2.68 -4 2 C-2.68 2 -1.36 2 0 2 C0 1.34 0 0.68 0 0 Z " fill="#2D9BA9" transform="translate(86,30)"/>
<path d="M0 0 C1.32 0 2.64 0 4 0 C4 0.66 4 1.32 4 2 C3.34 2 2.68 2 2 2 C2 3.98 2 5.96 2 8 C1.34 8 0.68 8 0 8 C0 8.66 0 9.32 0 10 C-0.66 10 -1.32 10 -2 10 C-2 10.66 -2 11.32 -2 12 C-3.32 12 -4.64 12 -6 12 C-6 12.66 -6 13.32 -6 14 C-7.32 13.67 -8.64 13.34 -10 13 C-10 11.35 -10 9.7 -10 8 C-9.34 8 -8.68 8 -8 8 C-8 8.66 -8 9.32 -8 10 C-7.34 10 -6.68 10 -6 10 C-6 9.34 -6 8.68 -6 8 C-4.35 8 -2.7 8 -1 8 C-1.33 6.68 -1.66 5.36 -2 4 C-2.66 4 -3.32 4 -4 4 C-4 3.34 -4 2.68 -4 2 C-2.68 2 -1.36 2 0 2 C0 1.34 0 0.68 0 0 Z " fill="#0DCDB7" transform="translate(234,48)"/>
<path d="M0 0 C1.32176485 0.90325616 2.63215066 1.82317903 3.9375 2.75 C4.66839844 3.26046875 5.39929688 3.7709375 6.15234375 4.296875 C8.20805399 6.19177915 8.62669176 7.27425729 9 10 C8.34 10 7.68 10 7 10 C7 9.34 7 8.68 7 8 C5.68 8 4.36 8 3 8 C3 7.34 3 6.68 3 6 C1.68 6 0.36 6 -1 6 C-1 7.98 -1 9.96 -1 12 C-1.66 12 -2.32 12 -3 12 C-3.66 10.02 -4.32 8.04 -5 6 C-5.66 6 -6.32 6 -7 6 C-6.67 5.01 -6.34 4.02 -6 3 C-4.35 3.33 -2.7 3.66 -1 4 C-0.67 2.68 -0.34 1.36 0 0 Z " fill="#1BB3A9" transform="translate(185,28)"/>
<path d="M0 0 C0.66 0 1.32 0 2 0 C1.70645238 8.51288089 -1.46776577 15.40623651 -5 23 C-5.66 23 -6.32 23 -7 23 C-7 21.02 -7 19.04 -7 17 C-7.66 17 -8.32 17 -9 17 C-9 16.34 -9 15.68 -9 15 C-7.02 15 -5.04 15 -3 15 C-3 13.02 -3 11.04 -3 9 C-2.34 9 -1.68 9 -1 9 C-1.165 8.401875 -1.33 7.80375 -1.5 7.1875 C-2 5 -2 5 -2 2 C-1.34 1.34 -0.68 0.68 0 0 Z " fill="#20A691" transform="translate(187,99)"/>
<path d="M0 0 C0.845625 0.45375 1.69125 0.9075 2.5625 1.375 C2.5625 2.365 2.5625 3.355 2.5625 4.375 C1.9025 4.375 1.2425 4.375 0.5625 4.375 C0.5625 5.035 0.5625 5.695 0.5625 6.375 C-1.0875 6.375 -2.7375 6.375 -4.4375 6.375 C-4.7675 7.035 -5.0975 7.695 -5.4375 8.375 C-6.0975 8.375 -6.7575 8.375 -7.4375 8.375 C-7.4375 7.715 -7.4375 7.055 -7.4375 6.375 C-8.4275 6.045 -9.4175 5.715 -10.4375 5.375 C-4.52065098 -0.82193654 -4.52065098 -0.82193654 0 0 Z " fill="#20A9BD" transform="translate(93.4375,7.625)"/>
<path d="M0 0 C2.64 0 5.28 0 8 0 C8.33 0.99 8.66 1.98 9 3 C8.31292969 3.26554687 7.62585938 3.53109375 6.91796875 3.8046875 C6.01691406 4.15789063 5.11585938 4.51109375 4.1875 4.875 C3.29417969 5.22304688 2.40085938 5.57109375 1.48046875 5.9296875 C-1.17711591 6.98832155 -1.17711591 6.98832155 -4 9 C-4.625 6.625 -4.625 6.625 -5 4 C-4.34 3.34 -3.68 2.68 -3 2 C-2.01 2 -1.02 2 0 2 C0 1.34 0 0.68 0 0 Z M-7 7 C-6.01 7.495 -6.01 7.495 -5 8 C-5.33 8.66 -5.66 9.32 -6 10 C-6.33 9.01 -6.66 8.02 -7 7 Z " fill="#13CBB6" transform="translate(220,46)"/>
<path d="M0 0 C1.61013585 0.73709784 3.21292391 1.49025857 4.8125 2.25 C5.70582031 2.66765625 6.59914062 3.0853125 7.51953125 3.515625 C10.10928331 5.06539789 11.38180834 6.48400766 13 9 C12.01 9.33 11.02 9.66 10 10 C10 9.34 10 8.68 10 8 C8.68 8 7.36 8 6 8 C6 8.66 6 9.32 6 10 C5.34 10 4.68 10 4 10 C4 9.34 4 8.68 4 8 C3.34 8 2.68 8 2 8 C2 7.34 2 6.68 2 6 C1.34 6 0.68 6 0 6 C0 4.02 0 2.04 0 0 Z " fill="#1DAAA8" transform="translate(158,6)"/>
<path d="M0 0 C1.32 0 2.64 0 4 0 C4 0.66 4 1.32 4 2 C5.32 2 6.64 2 8 2 C8.33 2.33 8.66 2.66 9 3 C9.99 3 10.98 3 12 3 C12.66 4.65 13.32 6.3 14 8 C12.68 8 11.36 8 10 8 C10 8.66 10 9.32 10 10 C8 9 8 9 6 7 C6 6.01 6 5.02 6 4 C4.68 4 3.36 4 2 4 C2 4.66 2 5.32 2 6 C1.34 6 0.68 6 0 6 C0 4.02 0 2.04 0 0 Z " fill="#14C2BC" transform="translate(184,34)"/>
<path d="M0 0 C2.56280208 0.14154136 5.12515485 0.28808562 7.6875 0.4375 C8.40873047 0.47681641 9.12996094 0.51613281 9.87304688 0.55664062 C13.66707282 0.78185678 17.28651492 1.12839305 21 2 C17.46575288 4.35616475 15.81355898 4.2981228 11.625 4.3125 C9.94277344 4.33763672 9.94277344 4.33763672 8.2265625 4.36328125 C4.71756702 3.96820064 2.81828093 3.08468346 0 1 C0 0.67 0 0.34 0 0 Z " fill="#1F919C" transform="translate(63,74)"/>
<path d="M0 0 C0 0.66 0 1.32 0 2 C-0.763125 2.061875 -1.52625 2.12375 -2.3125 2.1875 C-5.84268623 3.2547656 -6.30250226 4.8475042 -8 8 C-8.66 8 -9.32 8 -10 8 C-10 5.36 -10 2.72 -10 0 C-6.33694766 -0.74926071 -3.57644848 -1.2380014 0 0 Z " fill="#12BFB7" transform="translate(138,118)"/>
<path d="M0 0 C0.66 0 1.32 0 2 0 C1.67 2.64 1.34 5.28 1 8 C-2.63 6.02 -6.26 4.04 -10 2 C-10 1.67 -10 1.34 -10 1 C-6.7 1.33 -3.4 1.66 0 2 C0 1.34 0 0.68 0 0 Z " fill="#1E9CA3" transform="translate(54,106)"/>
<path d="M0 0 C1.32 0.66 2.64 1.32 4 2 C2.35 4.64 0.7 7.28 -1 10 C-3.475 9.01 -3.475 9.01 -6 8 C-4.7260411 5.96166576 -3.38938077 3.96147874 -2 2 C-1.34 2 -0.68 2 0 2 C0 1.34 0 0.68 0 0 Z " fill="#1C9FB3" transform="translate(15,93)"/>
<path d="M0 0 C1.32 0 2.64 0 4 0 C4 1.98 4 3.96 4 6 C1.08517222 6.80967438 -0.46113217 7.21845993 -3.3125 6.0625 C-3.869375 5.711875 -4.42625 5.36125 -5 5 C-4.34 3.68 -3.68 2.36 -3 1 C-2.34 1.33 -1.68 1.66 -1 2 C-0.67 1.34 -0.34 0.68 0 0 Z " fill="#21A5BA" transform="translate(8,108)"/>
<path d="M0 0 C0 0.66 0 1.32 0 2 C0.99 2.33 1.98 2.66 3 3 C0.4347341 4.71017726 -1.87960965 5.90417811 -4.6875 7.125 C-5.49574219 7.47820312 -6.30398437 7.83140625 -7.13671875 8.1953125 C-7.75160156 8.46085937 -8.36648437 8.72640625 -9 9 C-9 8.01 -9 7.02 -9 6 C-8.01 6 -7.02 6 -6 6 C-6.33 5.01 -6.66 4.02 -7 3 C-2.25 0 -2.25 0 0 0 Z " fill="#2494A2" transform="translate(25,104)"/>
<path d="M0 0 C0.16682272 4.92127034 0.24828052 8.50343896 -2 13 C-2.66 12.67 -3.32 12.34 -4 12 C-5.50138812 4.95502499 -5.50138812 4.95502499 -3.6875 1.5 C-2 0 -2 0 0 0 Z " fill="#19C5AB" transform="translate(250,25)"/>
<path d="M0 0 C4.33311515 0.41664569 8.03536259 1.19789209 12 3 C11.01 3.33 10.02 3.66 9 4 C8.67 4.99 8.34 5.98 8 7 C7.01 7 6.02 7 5 7 C5.33 5.68 5.66 4.36 6 3 C3.36 3 0.72 3 -2 3 C-1 1 -1 1 0 0 Z " fill="#1D9A9E" transform="translate(143,1)"/>
<path d="M0 0 C0.84755859 0.00322266 1.69511719 0.00644531 2.56835938 0.00976562 C3.8899707 0.02233398 3.8899707 0.02233398 5.23828125 0.03515625 C6.57729492 0.04192383 6.57729492 0.04192383 7.94335938 0.04882812 C10.14590112 0.06060642 12.34830724 0.07705461 14.55078125 0.09765625 C14.55078125 0.42765625 14.55078125 0.75765625 14.55078125 1.09765625 C9.60078125 1.09765625 4.65078125 1.09765625 -0.44921875 1.09765625 C-0.44921875 2.41765625 -0.44921875 3.73765625 -0.44921875 5.09765625 C-2.83485952 4.52181193 -5.11604659 3.8753803 -7.44921875 3.09765625 C-7.44921875 2.43765625 -7.44921875 1.77765625 -7.44921875 1.09765625 C-4.6251011 0.1562837 -2.92003843 -0.01959757 0 0 Z " fill="#22B2BF" transform="translate(113.44921875,-0.09765625)"/>
<path d="M0 0 C1.98 0 3.96 0 6 0 C5.34 1.98 4.68 3.96 4 6 C2.02 6 0.04 6 -2 6 C-2 5.34 -2 4.68 -2 4 C-2.66 4 -3.32 4 -4 4 C-4 3.34 -4 2.68 -4 2 C-2.68 2 -1.36 2 0 2 C0 1.34 0 0.68 0 0 Z " fill="#0FCDB8" transform="translate(208,66)"/>
<path d="M0 0 C2.97 0 5.94 0 9 0 C9.33 0.99 9.66 1.98 10 3 C8.5625 5.1875 8.5625 5.1875 7 7 C5.83040013 6.02433888 4.66438823 5.044375 3.5 4.0625 C2.8503125 3.51722656 2.200625 2.97195312 1.53125 2.41015625 C1.0259375 1.94480469 0.520625 1.47945312 0 1 C0 0.67 0 0.34 0 0 Z " fill="#1AA5AC" transform="translate(117,38)"/>
<path d="M0 0 C1.65 0.99 3.3 1.98 5 3 C3.79618552 5.49361571 2.54571278 7.68143083 1 10 C0.01 10 -0.98 10 -2 10 C-1.34 6.7 -0.68 3.4 0 0 Z " fill="#258A96" transform="translate(64,41)"/>
<path d="M0 0 C0.66 0 1.32 0 2 0 C1.25 1.9375 1.25 1.9375 0 4 C-3.1962905 5.23365598 -5.47602511 4.88099372 -8.75 4.0625 C-9.54921875 3.86785156 -10.3484375 3.67320313 -11.171875 3.47265625 C-11.77515625 3.31667969 -12.3784375 3.16070312 -13 3 C-13 2.34 -13 1.68 -13 1 C-8.71 1.33 -4.42 1.66 0 2 C0 1.34 0 0.68 0 0 Z " fill="#0FBAA4" transform="translate(232,42)"/>
<path d="M0 0 C2.5 1.3125 2.5 1.3125 5 3 C5 3.99 5 4.98 5 6 C3.02 6.66 1.04 7.32 -1 8 C-1.93065133 5.39417629 -2.14917407 4.35801776 -1.0625 1.75 C-0.711875 1.1725 -0.36125 0.595 0 0 Z " fill="#18ACA3" transform="translate(132,111)"/>
<path d="M0 0 C3.63 1.65 7.26 3.3 11 5 C8 7 8 7 6 7 C5.67 7.66 5.34 8.32 5 9 C4.67 8.34 4.34 7.68 4 7 C3.34 7 2.68 7 2 7 C0.5393715 4.35261084 0 3.10551666 0 0 Z " fill="#17A498" transform="translate(196,37)"/>
<path d="M0 0 C0.99 0 1.98 0 3 0 C2.42073787 3.53819573 1.15676523 5.25028243 -1.375 7.75 C-1.98085937 8.36359375 -2.58671875 8.9771875 -3.2109375 9.609375 C-5 11 -5 11 -8 11 C-8 10.01 -8 9.02 -8 8 C-6.68 8 -5.36 8 -4 8 C-4 7.34 -4 6.68 -4 6 C-3.34 6 -2.68 6 -2 6 C-2 5.34 -2 4.68 -2 4 C-1.34 4 -0.68 4 0 4 C0 2.68 0 1.36 0 0 Z " fill="#26C7AE" transform="translate(236,52)"/>
<path d="M0 0 C0.66 0 1.32 0 2 0 C2 0.66 2 1.32 2 2 C2.66 2 3.32 2 4 2 C4 2.66 4 3.32 4 4 C3.34 4 2.68 4 2 4 C2 4.66 2 5.32 2 6 C2.66 6 3.32 6 4 6 C3.67 6.99 3.34 7.98 3 9 C0.00675737 7.9024777 -0.84610901 7.32317108 -2.25 4.375 C-2.4975 3.59125 -2.745 2.8075 -3 2 C-2.01 2 -1.02 2 0 2 C0 1.34 0 0.68 0 0 Z " fill="#24A9AD" transform="translate(72,122)"/>
<path d="M0 0 C0.66 0.33 1.32 0.66 2 1 C1.42655063 3.86724686 1.1385485 4.8614515 -1 7 C-1.99 7 -2.98 7 -4 7 C-4.33 7.66 -4.66 8.32 -5 9 C-5 5 -5 5 -2.5 2.25 C-1.675 1.5075 -0.85 0.765 0 0 Z " fill="#1F909A" transform="translate(82,13)"/>
<path d="M0 0 C2.31 0 4.62 0 7 0 C5.125 5.75 5.125 5.75 4 8 C3.34 8 2.68 8 2 8 C2 6.02 2 4.04 2 2 C1.34 2 0.68 2 0 2 C0 1.34 0 0.68 0 0 Z " fill="#1CAA9B" transform="translate(178,114)"/>
<path d="M0 0 C1.65 0 3.3 0 5 0 C3 3 3 3 1 4 C1 4.66 1 5.32 1 6 C0.01 6 -0.98 6 -2 6 C-2 6.66 -2 7.32 -2 8 C-2.66 8 -3.32 8 -4 8 C-4 6.68 -4 5.36 -4 4 C-3.34 4 -2.68 4 -2 4 C-2 3.34 -2 2.68 -2 2 C-1.34 2 -0.68 2 0 2 C0 1.34 0 0.68 0 0 Z " fill="#1AA6BD" transform="translate(18,104)"/>
<path d="M0 0 C5.94 1.485 5.94 1.485 12 3 C12 3.33 12 3.66 12 4 C11.195625 4.12375 10.39125 4.2475 9.5625 4.375 C8.2940625 4.684375 8.2940625 4.684375 7 5 C6.67 5.66 6.34 6.32 6 7 C5.34 7 4.68 7 4 7 C0 2.52941176 0 2.52941176 0 0 Z " fill="#13A397" transform="translate(138,115)"/>
<path d="M0 0 C0.33 0.66 0.66 1.32 1 2 C3.01669827 3.13350534 3.01669827 3.13350534 5 4 C4.360625 4.103125 3.72125 4.20625 3.0625 4.3125 C2.381875 4.539375 1.70125 4.76625 1 5 C0.67 5.99 0.34 6.98 0 8 C-0.99 8.495 -0.99 8.495 -2 9 C-2.6875 7.3125 -2.6875 7.3125 -3 5 C-1.5625 2.25 -1.5625 2.25 0 0 Z " fill="#17A79F" transform="translate(125,105)"/>
<path d="M0 0 C3.3 0 6.6 0 10 0 C9.67 1.32 9.34 2.64 9 4 C7.35 4.33 5.7 4.66 4 5 C4 4.34 4 3.68 4 3 C4.66 3 5.32 3 6 3 C6 2.34 6 1.68 6 1 C4.02 1 2.04 1 0 1 C0 0.67 0 0.34 0 0 Z " fill="#1FC2B3" transform="translate(144,119)"/>
<path d="M0 0 C-0.33 0.66 -0.66 1.32 -1 2 C-4.96 2 -8.92 2 -13 2 C-13 1.34 -13 0.68 -13 0 C-4.57142857 -1.28571429 -4.57142857 -1.28571429 0 0 Z " fill="#1CADB1" transform="translate(103,28)"/>
<path d="M0 0 C0.66 0.33 1.32 0.66 2 1 C1.67 2.32 1.34 3.64 1 5 C-1.31 5.66 -3.62 6.32 -6 7 C-4.60667426 3.63279613 -3.0210714 2.0140476 0 0 Z " fill="#25C5B7" transform="translate(185,103)"/>
<path d="M0 0 C2.64 0 5.28 0 8 0 C8 0.99 8 1.98 8 3 C4.7 3 1.4 3 -2 3 C-1.34 2.67 -0.68 2.34 0 2 C0 1.34 0 0.68 0 0 Z " fill="#1CADC7" transform="translate(32,104)"/>
<path d="M0 0 C0.66 0 1.32 0 2 0 C1.47731534 2.76276177 0.89130413 5.3260876 0 8 C-1.98 8 -3.96 8 -6 8 C-6 7.34 -6 6.68 -6 6 C-4.02 5.34 -2.04 4.68 0 4 C0 2.68 0 1.36 0 0 Z " fill="#10C7B5" transform="translate(144,140)"/>
<path d="M0 0 C0.66 0 1.32 0 2 0 C2.33 1.98 2.66 3.96 3 6 C1.35 6.33 -0.3 6.66 -2 7 C-2 5.35 -2 3.7 -2 2 C-1.34 2 -0.68 2 0 2 C0 1.34 0 0.68 0 0 Z " fill="#14C6B3" transform="translate(170,128)"/>
<path d="M0 0 C2.475 0.99 2.475 0.99 5 2 C5 2.99 5 3.98 5 5 C4.236875 4.773125 3.47375 4.54625 2.6875 4.3125 C1.800625 4.209375 0.91375 4.10625 0 4 C-1.8354799 5.33378575 -1.8354799 5.33378575 -3 7 C-1.125 1.125 -1.125 1.125 0 0 Z " fill="#21A9C0" transform="translate(9,101)"/>
<path d="M0 0 C2 2 2 2 2.125 4.625 C2.08375 5.40875 2.0425 6.1925 2 7 C0.35 7 -1.3 7 -3 7 C-2.38722388 4.03824877 -1.74627478 2.61941217 0 0 Z " fill="#229CAB" transform="translate(72,25)"/>
<path d="M0 0 C-0.99 0.495 -0.99 0.495 -2 1 C-2 1.66 -2 2.32 -2 3 C-5.3 2.34 -8.6 1.68 -12 1 C-12 0.67 -12 0.34 -12 0 C-7.6835078 -0.76173392 -4.25566547 -1.16063604 0 0 Z " fill="#2CBBAE" transform="translate(222,45)"/>
<path d="M0 0 C0.66 0.33 1.32 0.66 2 1 C0.68 2.65 -0.64 4.3 -2 6 C-2.99 5.67 -3.98 5.34 -5 5 C-4 2 -4 2 -2.0625 0.75 C-1.381875 0.5025 -0.70125 0.255 0 0 Z " fill="#1BCAB2" transform="translate(170,114)"/>
<path d="M0 0 C1.98 0 3.96 0 6 0 C6 0.66 6 1.32 6 2 C2.53846154 5 2.53846154 5 0 5 C0 3.35 0 1.7 0 0 Z " fill="#2A92A4" transform="translate(76,34)"/>
<path d="M0 0 C1.98 0 3.96 0 6 0 C6 0.66 6 1.32 6 2 C5.34 2 4.68 2 4 2 C4 2.66 4 3.32 4 4 C3.01 4 2.02 4 1 4 C0.34 4.66 -0.32 5.32 -1 6 C-0.67 4.02 -0.34 2.04 0 0 Z " fill="#22AEC2" transform="translate(68,32)"/>
<path d="M0 0 C0.33 0.99 0.66 1.98 1 3 C1.66 3 2.32 3 3 3 C3 3.66 3 4.32 3 5 C1.68 5 0.36 5 -1 5 C-1.33 6.32 -1.66 7.64 -2 9 C-2.66 7.68 -3.32 6.36 -4 5 C-3.525625 4.54625 -3.05125 4.0925 -2.5625 3.625 C-0.90972192 2.06741796 -0.90972192 2.06741796 0 0 Z " fill="#1F9BAC" transform="translate(9,103)"/>
<path d="M0 0 C3.26954202 0.56371414 4.82575883 1.49962266 7 4 C6.67 4.99 6.34 5.98 6 7 C6 6.34 6 5.68 6 5 C4.02 4.34 2.04 3.68 0 3 C0 2.01 0 1.02 0 0 Z " fill="#2BB9B6" transform="translate(178,23)"/>
<path d="M0 0 C0 0.66 0 1.32 0 2 C-4.455 2.495 -4.455 2.495 -9 3 C-9 2.34 -9 1.68 -9 1 C-5.64919071 -1.10976881 -3.77897651 -1.0497157 0 0 Z " fill="#16B49F" transform="translate(207,73)"/>
<path d="M0 0 C0.66 0.99 1.32 1.98 2 3 C2 2.34 2 1.68 2 1 C2.66 1 3.32 1 4 1 C4.33 2.32 4.66 3.64 5 5 C4.01 5.495 4.01 5.495 3 6 C0.875 5.0625 0.875 5.0625 -1 4 C-0.67 2.68 -0.34 1.36 0 0 Z " fill="#21AAC0" transform="translate(66,39)"/>
<path d="M0 0 C0.66 0 1.32 0 2 0 C1.25 5.75 1.25 5.75 -1 8 C-1.33 6.35 -1.66 4.7 -2 3 C-1.34 2.67 -0.68 2.34 0 2 C0 1.34 0 0.68 0 0 Z " fill="#1AA792" transform="translate(248,30)"/>
<path d="M0 0 C1.98 0.66 3.96 1.32 6 2 C5.34 2.66 4.68 3.32 4 4 C0.375 3.625 0.375 3.625 -3 3 C-2.01 2.01 -1.02 1.02 0 0 Z " fill="#1F98A6" transform="translate(90,7)"/>
<path d="M0 0 C0.66 0.33 1.32 0.66 2 1 C1.67 2.32 1.34 3.64 1 5 C0.34 5 -0.32 5 -1 5 C-1 5.66 -1 6.32 -1 7 C-1.99 6.67 -2.98 6.34 -4 6 C-2.68 4.02 -1.36 2.04 0 0 Z " fill="#268AA1" transform="translate(13,95)"/>
<path d="M0 0 C0 0.66 0 1.32 0 2 C-2.1385485 4.1385485 -3.13275314 4.42655063 -6 5 C-6 4.01 -6 3.02 -6 2 C-2.25 0 -2.25 0 0 0 Z " fill="#238FA2" transform="translate(32,81)"/>
<path d="M0 0 C0.99 0.66 1.98 1.32 3 2 C2.34 2 1.68 2 1 2 C1 2.66 1 3.32 1 4 C-0.98 4 -2.96 4 -5 4 C-5 3.34 -5 2.68 -5 2 C-2.6875 0.875 -2.6875 0.875 0 0 Z " fill="#26CDB5" transform="translate(231,40)"/>
<path d="M0 0 C2.64 0 5.28 0 8 0 C5.6875 2.0625 5.6875 2.0625 3 4 C2.01 3.67 1.02 3.34 0 3 C0 2.01 0 1.02 0 0 Z " fill="#23C3AE" transform="translate(143,146)"/>
<path d="M0 0 C0.99 0 1.98 0 3 0 C3 0.66 3 1.32 3 2 C3.66 2 4.32 2 5 2 C4.67 2.99 4.34 3.98 4 5 C2.68 4.34 1.36 3.68 0 3 C0 2.01 0 1.02 0 0 Z " fill="#26AEB2" transform="translate(63,118)"/>
<path d="M0 0 C0.66 0 1.32 0 2 0 C2 1.32 2 2.64 2 4 C0.02 4 -1.96 4 -4 4 C-3.67 3.01 -3.34 2.02 -3 1 C-2.01 1.33 -1.02 1.66 0 2 C0 1.34 0 0.68 0 0 Z " fill="#0CCAB2" transform="translate(182,110)"/>
<path d="M0 0 C0.66 0.66 1.32 1.32 2 2 C1.34 2 0.68 2 0 2 C0 3.32 0 4.64 0 6 C-1.32 6 -2.64 6 -4 6 C-2.84826645 3.53199953 -1.95216435 1.95216435 0 0 Z " fill="#2DA7B8" transform="translate(20,88)"/>
<path d="M0 0 C2.125 0.375 2.125 0.375 4 1 C4 1.66 4 2.32 4 3 C3.34 3 2.68 3 2 3 C2 3.66 2 4.32 2 5 C1.34 5 0.68 5 0 5 C0 4.34 0 3.68 0 3 C-0.66 2.67 -1.32 2.34 -2 2 C-1.34 1.34 -0.68 0.68 0 0 Z " fill="#21A9C4" transform="translate(24,85)"/>
<path d="M0 0 C0.66 0.66 1.32 1.32 2 2 C1.34 2 0.68 2 0 2 C0 3.32 0 4.64 0 6 C-1.32 6 -2.64 6 -4 6 C-2.84826645 3.53199953 -1.95216435 1.95216435 0 0 Z " fill="#25CAB6" transform="translate(244,30)"/>
<path d="M0 0 C-4.625 3 -4.625 3 -8 3 C-8 2.34 -8 1.68 -8 1 C-3.375 -1.125 -3.375 -1.125 0 0 Z " fill="#2BACBB" transform="translate(105,3)"/>
</svg>
